AnekLatin-CondensedMedium.ufo
<glyph name="semicolon" format="2">
  <advance width="320"/>
  <unicode hex="003B"/>
  <outline>
    <contour>
      <point x="242" y="277" type="curve"/>
      <point x="76" y="277" type="line"/>
      <point x="80" y="233"/>
      <point x="82" y="194"/>
      <point x="82" y="150" type="curve" smooth="yes"/>
      <point x="82" y="10"/>
      <point x="50" y="-101"/>
      <point x="-2" y="-198" type="curve"/>
      <point x="118" y="-239" type="line"/>
      <point x="212" y="-120"/>
      <point x="251" y="7"/>
      <point x="251" y="157" type="curve" smooth="yes"/>
      <point x="251" y="205"/>
      <point x="246" y="249"/>
    </contour>
    <contour>
      <point x="160" y="672" type="curve" smooth="yes"/>
      <point x="223" y="672"/>
      <point x="255" y="715"/>
      <point x="255" y="793" type="curve" smooth="yes"/>
      <point x="255" y="810" type="line" smooth="yes"/>
      <point x="255" y="887"/>
      <point x="223" y="930"/>
      <point x="160" y="930" type="curve" smooth="yes"/>
      <point x="94" y="930"/>
      <point x="65" y="887"/>
      <point x="65" y="810" type="curve" smooth="yes"/>
      <point x="65" y="793" type="line" smooth="yes"/>
      <point x="65" y="715"/>
      <point x="94" y="672"/>
    </contour>
  </outline>
</glyph>
<glyph name="registered" format="2">
  <advance width="645"/>
  <unicode hex="00AE"/>
  <outline>
    <contour>
      <point x="322" y="547" type="curve" smooth="yes"/>
      <point x="499" y="547"/>
      <point x="588" y="661"/>
      <point x="588" y="837" type="curve" smooth="yes"/>
      <point x="588" y="1005" type="line" smooth="yes"/>
      <point x="588" y="1181"/>
      <point x="499" y="1294"/>
      <point x="322" y="1294" type="curve" smooth="yes"/>
      <point x="145" y="1294"/>
      <point x="57" y="1180"/>
      <point x="57" y="1005" type="curve" smooth="yes"/>
      <point x="57" y="837" type="line" smooth="yes"/>
      <point x="57" y="661"/>
      <point x="145" y="547"/>
    </contour>
    <contour>
      <point x="322" y="617" type="curve" smooth="yes"/>
      <point x="195" y="617"/>
      <point x="137" y="695"/>
      <point x="137" y="831" type="curve" smooth="yes"/>
      <point x="137" y="1012" type="line" smooth="yes"/>
      <point x="137" y="1146"/>
      <point x="195" y="1224"/>
      <point x="322" y="1224" type="curve" smooth="yes"/>
      <point x="448" y="1224"/>
      <point x="508" y="1146"/>
      <point x="508" y="1012" type="curve" smooth="yes"/>
      <point x="508" y="831" type="line" smooth="yes"/>
      <point x="508" y="695"/>
      <point x="448" y="617"/>
    </contour>
    <contour>
      <point x="369" y="731" type="line"/>
      <point x="440" y="731" type="line"/>
      <point x="430" y="810" type="line" smooth="yes"/>
      <point x="422" y="874"/>
      <point x="407" y="912"/>
      <point x="357" y="917" type="curve"/>
      <point x="369" y="909" type="line"/>
      <point x="369" y="919" type="line"/>
      <point x="415" y="923"/>
      <point x="433" y="953"/>
      <point x="433" y="1000" type="curve" smooth="yes"/>
      <point x="433" y="1021" type="line" smooth="yes"/>
      <point x="433" y="1089"/>
      <point x="399" y="1124"/>
      <point x="326" y="1124" type="curve" smooth="yes"/>
      <point x="280" y="1124" type="line"/>
      <point x="280" y="1062" type="line"/>
      <point x="325" y="1062" type="line" smooth="yes"/>
      <point x="352" y="1062"/>
      <point x="363" y="1044"/>
      <point x="363" y="1008" type="curve" smooth="yes"/>
      <point x="363" y="989" type="line" smooth="yes"/>
      <point x="363" y="951"/>
      <point x="352" y="934"/>
      <point x="322" y="933" type="curve" smooth="yes"/>
      <point x="282" y="932" type="line"/>
      <point x="282" y="871" type="line"/>
      <point x="318" y="871" type="line" smooth="yes"/>
      <point x="346" y="871"/>
      <point x="356" y="854"/>
      <point x="361" y="806" type="curve" smooth="yes"/>
    </contour>
    <contour>
      <point x="228" y="731" type="line"/>
      <point x="298" y="731" type="line"/>
      <point x="298" y="888" type="line"/>
      <point x="298" y="912" type="line"/>
      <point x="298" y="1124" type="line"/>
      <point x="228" y="1124" type="line"/>
    </contour>
  </outline>
</glyph>
<glyph name="dcroat" format="2">
  <advance width="743"/>
  <unicode hex="0111"/>
  <anchor x="370" y="0" name="bottom"/>
  <anchor x="370" y="499" name="center"/>
  <anchor x="370" y="1329" name="top"/>
  <anchor x="763" y="1329" name="topright"/>
  <outline>
    <contour>
      <point x="251" y="1101" type="line"/>
      <point x="738" y="1101" type="line"/>
      <point x="738" y="1213" type="line"/>
      <point x="251" y="1213" type="line"/>
    </contour>
    <component base="d"/>
  </outline>
</glyph>
<glyph name="eogonek" format="2">
  <advance width="680"/>
  <unicode hex="0119"/>
  <anchor x="360" y="0" name="bottom"/>
  <anchor x="595" y="10" name="ogonek"/>
  <anchor x="353" y="998" name="top"/>
  <outline>
    <contour>
      <point x="472" y="-335" type="curve" smooth="yes"/>
      <point x="513" y="-335"/>
      <point x="555" y="-327"/>
      <point x="584" y="-315" type="curve"/>
      <point x="596" y="-191" type="line"/>
      <point x="570" y="-201"/>
      <point x="546" y="-206"/>
      <point x="517" y="-206" type="curve" smooth="yes"/>
      <point x="462" y="-206"/>
      <point x="429" y="-181"/>
      <point x="429" y="-136" type="curve" smooth="yes"/>
      <point x="429" y="-135" type="line" smooth="yes"/>
      <point x="429" y="-76"/>
      <point x="464" y="-31"/>
      <point x="532" y="10" type="curve"/>
      <point x="532" y="17" type="line"/>
      <point x="423" y="-7" type="line"/>
      <point x="423" y="-17" type="line"/>
      <point x="343" y="-53"/>
      <point x="301" y="-110"/>
      <point x="301" y="-189" type="curve" smooth="yes"/>
      <point x="301" y="-190" type="line" smooth="yes"/>
      <point x="301" y="-285"/>
      <point x="368" y="-335"/>
    </contour>
    <component base="e"/>
  </outline>
</glyph>
<glyph name="Hbar" format="2">
  <advance width="818"/>
  <unicode hex="0126"/>
  <anchor x="409" y="0" name="bottom"/>
  <anchor x="409" y="639" name="center"/>
  <anchor x="409" y="1278" name="top"/>
  <anchor x="20" y="1278" name="topleft"/>
  <outline>
    <contour>
      <point x="16" y="941" type="line"/>
      <point x="802" y="941" type="line"/>
      <point x="802" y="1067" type="line"/>
      <point x="16" y="1067" type="line"/>
    </contour>
    <component base="H"/>
  </outline>
</glyph>
<glyph name="hbar" format="2">
  <advance width="750"/>
  <unicode hex="0127"/>
  <anchor x="377" y="0" name="bottom"/>
  <anchor x="377" y="667" name="center"/>
  <anchor x="177" y="1329" name="top"/>
  <outline>
    <contour>
      <point x="6" y="1101" type="line"/>
      <point x="469" y="1101" type="line"/>
      <point x="469" y="1213" type="line"/>
      <point x="6" y="1213" type="line"/>
    </contour>
    <component base="h" xOffset="2"/>
  </outline>
</glyph>
<glyph name="kgreenlandic" format="2">
  <advance width="697"/>
  <unicode hex="0138"/>
  <anchor x="349" y="0" name="bottom"/>
  <anchor x="349" y="998" name="top"/>
  <outline>
    <contour>
      <point x="502" y="0" type="line"/>
      <point x="681" y="0" type="line"/>
      <point x="432" y="534" type="line"/>
      <point x="432" y="493" type="line"/>
      <point x="668" y="998" type="line"/>
      <point x="495" y="998" type="line"/>
      <point x="303" y="576" type="line"/>
      <point x="249" y="576" type="line"/>
      <point x="249" y="437" type="line"/>
      <point x="303" y="437" type="line"/>
    </contour>
    <contour>
      <point x="88" y="0" type="line"/>
      <point x="262" y="0" type="line"/>
      <point x="262" y="998" type="line"/>
      <point x="88" y="998" type="line"/>
    </contour>
  </outline>
</glyph>
<glyph name="Lslash" format="2">
  <advance width="604"/>
  <unicode hex="0141"/>
  <anchor x="329" y="0" name="bottom"/>
  <anchor x="252" y="653" name="center"/>
  <anchor x="194" y="1278" name="top"/>
  <anchor x="427" y="1278" name="topright"/>
  <outline>
    <contour>
      <point x="462" y="962" type="line"/>
      <point x="7" y="717" type="line"/>
      <point x="7" y="569" type="line"/>
      <point x="462" y="814" type="line"/>
    </contour>
    <component base="L" xOffset="6"/>
  </outline>
</glyph>
<glyph name="lslash" format="2">
  <advance width="392"/>
  <unicode hex="0142"/>
  <anchor x="198" y="0" name="bottom"/>
  <anchor x="198" y="667" name="center"/>
  <anchor x="198" y="1329" name="top"/>
  <anchor x="395" y="1329" name="topright"/>
  <outline>
    <contour>
      <point x="-11" y="512" type="line"/>
      <point x="403" y="860" type="line"/>
      <point x="403" y="1006" type="line"/>
      <point x="-11" y="658" type="line"/>
    </contour>
    <component base="l" xOffset="19"/>
  </outline>
</glyph>
<glyph name="Eng" format="2">
  <advance width="844"/>
  <unicode hex="014A"/>
  <outline>
    <contour>
      <point x="98" y="0" type="line"/>
      <point x="267" y="0" type="line"/>
      <point x="267" y="464" type="line"/>
      <point x="252" y="1088" type="line"/>
      <point x="262" y="1088" type="line"/>
      <point x="484" y="0" type="line"/>
      <point x="645" y="0" type="line"/>
      <point x="746" y="20" type="line"/>
      <point x="746" y="1279" type="line"/>
      <point x="578" y="1279" type="line"/>
      <point x="578" y="815" type="line"/>
      <point x="592" y="199" type="line"/>
      <point x="582" y="199" type="line"/>
      <point x="360" y="1279" type="line"/>
      <point x="98" y="1279" type="line"/>
    </contour>
    <contour>
      <point x="508" y="-358" type="curve" smooth="yes"/>
      <point x="678" y="-358"/>
      <point x="746" y="-259"/>
      <point x="746" y="-96" type="curve" smooth="yes"/>
      <point x="746" y="114" type="line"/>
      <point x="577" y="114" type="line"/>
      <point x="577" y="-80" type="line" smooth="yes"/>
      <point x="577" y="-162"/>
      <point x="552" y="-210"/>
      <point x="468" y="-210" type="curve" smooth="yes"/>
      <point x="435" y="-210"/>
      <point x="405" y="-203"/>
      <point x="376" y="-190" type="curve"/>
      <point x="390" y="-336" type="line"/>
      <point x="420" y="-350"/>
      <point x="463" y="-358"/>
    </contour>
  </outline>
</glyph>
<glyph name="tcaron" format="2">
  <advance width="512"/>
  <unicode hex="0165"/>
  <anchor x="299" y="0" name="bottom"/>
  <anchor x="256" y="499" name="center"/>
  <anchor x="210" y="1225" name="top"/>
  <anchor x="377" y="1419" name="topright"/>
  <outline>
    <contour>
      <point x="516" y="1419" type="curve"/>
      <point x="377" y="1419" type="line"/>
      <point x="381" y="1384"/>
      <point x="383" y="1357"/>
      <point x="383" y="1327" type="curve" smooth="yes"/>
      <point x="383" y="1227"/>
      <point x="365" y="1146"/>
      <point x="334" y="1075" type="curve"/>
      <point x="434" y="1047" type="line"/>
      <point x="497" y="1130"/>
      <point x="524" y="1224"/>
      <point x="524" y="1336" type="curve" smooth="yes"/>
      <point x="524" y="1372"/>
      <point x="519" y="1399"/>
    </contour>
    <component base="t"/>
  </outline>
</glyph>
<glyph name="Tbar" format="2">
  <advance width="644"/>
  <unicode hex="0166"/>
  <anchor x="322" y="0" name="bottom"/>
  <anchor x="322" y="639" name="center"/>
  <anchor x="322" y="1278" name="top"/>
  <outline>
    <contour>
      <point x="83" y="543" type="line"/>
      <point x="572" y="543" type="line"/>
      <point x="572" y="683" type="line"/>
      <point x="83" y="683" type="line"/>
    </contour>
    <component base="T"/>
  </outline>
</glyph>
<glyph name="tbar" format="2">
  <advance width="523"/>
  <unicode hex="0167"/>
  <outline>
    <contour>
      <point x="336" y="-13" type="curve" smooth="yes"/>
      <point x="395" y="-13"/>
      <point x="446" y="-1"/>
      <point x="482" y="16" type="curve"/>
      <point x="494" y="170" type="line"/>
      <point x="464" y="156"/>
      <point x="431" y="146"/>
      <point x="393" y="146" type="curve" smooth="yes"/>
      <point x="319" y="146"/>
      <point x="289" y="176"/>
      <point x="289" y="259" type="curve" smooth="yes"/>
      <point x="289" y="960" type="line"/>
      <point x="118" y="960" type="line"/>
      <point x="118" y="219" type="line" smooth="yes"/>
      <point x="118" y="66"/>
      <point x="186" y="-13"/>
    </contour>
    <contour>
      <point x="18" y="466" type="line"/>
      <point x="456" y="466" type="line"/>
      <point x="456" y="594" type="line"/>
      <point x="18" y="594" type="line"/>
    </contour>
    <contour>
      <point x="16" y="848" type="line"/>
      <point x="466" y="848" type="line"/>
      <point x="478" y="989" type="line"/>
      <point x="16" y="989" type="line"/>
    </contour>
    <contour>
      <point x="120" y="974" type="line"/>
      <point x="284" y="974" type="line"/>
      <point x="291" y="1251" type="line"/>
      <point x="120" y="1225" type="line"/>
    </contour>
  </outline>
</glyph>
<glyph name="Uogonek" format="2">
  <advance width="806"/>
  <unicode hex="0172"/>
  <anchor x="402" y="0" name="bottom"/>
  <anchor x="582" y="5" name="ogonek"/>
  <anchor x="402" y="1278" name="top"/>
  <anchor x="798" y="1278" name="topright"/>
  <outline>
    <contour>
      <point x="484" y="-335" type="curve" smooth="yes"/>
      <point x="523" y="-335"/>
      <point x="564" y="-327"/>
      <point x="591" y="-315" type="curve"/>
      <point x="603" y="-191" type="line"/>
      <point x="579" y="-201"/>
      <point x="556" y="-206"/>
      <point x="529" y="-206" type="curve" smooth="yes"/>
      <point x="479" y="-206"/>
      <point x="450" y="-181"/>
      <point x="450" y="-136" type="curve" smooth="yes"/>
      <point x="450" y="-135" type="line" smooth="yes"/>
      <point x="450" y="-82"/>
      <point x="477" y="-38"/>
      <point x="530" y="3" type="curve"/>
      <point x="530" y="10" type="line"/>
      <point x="434" y="10" type="line"/>
      <point x="434" y="-22" type="line"/>
      <point x="361" y="-57"/>
      <point x="322" y="-116"/>
      <point x="322" y="-190" type="curve" smooth="yes"/>
      <point x="322" y="-191" type="line" smooth="yes"/>
      <point x="322" y="-285"/>
      <point x="385" y="-335"/>
    </contour>
    <component base="U"/>
  </outline>
</glyph>
<glyph name="Schwa" format="2">
  <advance width="738"/>
  <unicode hex="018F"/>
  <anchor x="369" y="0" name="bottom"/>
  <anchor x="369" y="1278" name="top"/>
  <outline>
    <contour>
      <point x="364" y="-19" type="curve" smooth="yes"/>
      <point x="566" y="-19"/>
      <point x="660" y="101"/>
      <point x="660" y="334" type="curve" smooth="yes"/>
      <point x="660" y="902" type="line" smooth="yes"/>
      <point x="660" y="1165"/>
      <point x="554" y="1297"/>
      <point x="341" y="1297" type="curve" smooth="yes"/>
      <point x="234" y="1297"/>
      <point x="148" y="1265"/>
      <point x="99" y="1231" type="curve"/>
      <point x="85" y="1062" type="line"/>
      <point x="138" y="1100"/>
      <point x="208" y="1132"/>
      <point x="300" y="1132" type="curve" smooth="yes"/>
      <point x="434" y="1132"/>
      <point x="484" y="1052"/>
      <point x="484" y="892" type="curve" smooth="yes"/>
      <point x="484" y="319" type="line" smooth="yes"/>
      <point x="484" y="195"/>
      <point x="451" y="134"/>
      <point x="364" y="134" type="curve" smooth="yes"/>
      <point x="283" y="134"/>
      <point x="238" y="195"/>
      <point x="238" y="319" type="curve"/>
      <point x="238" y="660" type="line"/>
      <point x="206" y="588" type="line"/>
      <point x="551" y="588" type="line"/>
      <point x="551" y="733" type="line"/>
      <point x="79" y="733" type="line"/>
      <point x="72" y="676"/>
      <point x="70" y="623"/>
      <point x="70" y="568" type="curve" smooth="yes"/>
      <point x="70" y="334" type="line"/>
      <point x="70" y="101"/>
      <point x="164" y="-19"/>
    </contour>
  </outline>
</glyph>
<glyph name="florin" format="2">
  <advance width="620"/>
  <unicode hex="0192"/>
  <outline>
    <contour>
      <point x="40" y="838" type="line"/>
      <point x="548" y="838" type="line"/>
      <point x="558" y="979" type="line"/>
      <point x="50" y="979" type="line"/>
    </contour>
    <contour>
      <point x="602" y="1184" type="curve"/>
      <point x="597" y="1315" type="line"/>
      <point x="549" y="1336"/>
      <point x="487" y="1354"/>
      <point x="417" y="1354" type="curve" smooth="yes"/>
      <point x="253" y="1354"/>
      <point x="166" y="1276"/>
      <point x="154" y="1091" type="curve" smooth="yes"/>
      <point x="55" y="-350" type="line"/>
      <point x="223" y="-350" type="line"/>
      <point x="321" y="1072" type="line" smooth="yes"/>
      <point x="328" y="1176"/>
      <point x="370" y="1213"/>
      <point x="459" y="1213" type="curve" smooth="yes"/>
      <point x="507" y="1213"/>
      <point x="558" y="1200"/>
    </contour>
  </outline>
</glyph>
<glyph name="Oogonek" format="2">
  <advance width="788"/>
  <unicode hex="01EA"/>
  <anchor x="394" y="0" name="bottom"/>
  <anchor x="394" y="639" name="center"/>
  <anchor x="577" y="5" name="ogonek"/>
  <anchor x="394" y="1278" name="top"/>
  <anchor x="20" y="1278" name="topleft"/>
  <anchor x="739" y="1278" name="topright"/>
  <outline>
    <contour>
      <point x="477" y="-335" type="curve" smooth="yes"/>
      <point x="516" y="-335"/>
      <point x="557" y="-327"/>
      <point x="584" y="-315" type="curve"/>
      <point x="596" y="-191" type="line"/>
      <point x="572" y="-201"/>
      <point x="549" y="-206"/>
      <point x="522" y="-206" type="curve" smooth="yes"/>
      <point x="472" y="-206"/>
      <point x="443" y="-181"/>
      <point x="443" y="-136" type="curve" smooth="yes"/>
      <point x="443" y="-135" type="line" smooth="yes"/>
      <point x="443" y="-82"/>
      <point x="470" y="-38"/>
      <point x="523" y="3" type="curve"/>
      <point x="523" y="10" type="line"/>
      <point x="427" y="10" type="line"/>
      <point x="427" y="-22" type="line"/>
      <point x="354" y="-56"/>
      <point x="315" y="-116"/>
      <point x="315" y="-190" type="curve" smooth="yes"/>
      <point x="315" y="-191" type="line" smooth="yes"/>
      <point x="315" y="-285"/>
      <point x="378" y="-335"/>
    </contour>
    <component base="O"/>
  </outline>
</glyph>
<glyph name="oogonek" format="2">
  <advance width="721"/>
  <unicode hex="01EB"/>
  <anchor x="363" y="0" name="bottom"/>
  <anchor x="363" y="499" name="center"/>
  <anchor x="543" y="5" name="ogonek"/>
  <anchor x="363" y="998" name="top"/>
  <anchor x="685" y="998" name="topright"/>
  <outline>
    <contour>
      <point x="440" y="-335" type="curve" smooth="yes"/>
      <point x="481" y="-335"/>
      <point x="523" y="-327"/>
      <point x="552" y="-315" type="curve"/>
      <point x="564" y="-191" type="line"/>
      <point x="538" y="-201"/>
      <point x="514" y="-206"/>
      <point x="485" y="-206" type="curve" smooth="yes"/>
      <point x="430" y="-206"/>
      <point x="397" y="-181"/>
      <point x="397" y="-136" type="curve" smooth="yes"/>
      <point x="397" y="-135" type="line" smooth="yes"/>
      <point x="397" y="-72"/>
      <point x="432" y="-34"/>
      <point x="500" y="13" type="curve"/>
      <point x="500" y="20" type="line"/>
      <point x="391" y="-7" type="line"/>
      <point x="391" y="-21" type="line"/>
      <point x="311" y="-56"/>
      <point x="269" y="-111"/>
      <point x="269" y="-189" type="curve" smooth="yes"/>
      <point x="269" y="-190" type="line" smooth="yes"/>
      <point x="269" y="-285"/>
      <point x="336" y="-335"/>
    </contour>
    <component base="o"/>
  </outline>
</glyph>
<glyph name="Odieresismacron" format="2">
  <advance width="789"/>
  <unicode hex="022A"/>
  <anchor x="394" y="0" name="bottom"/>
  <anchor x="394" y="639" name="center"/>
  <anchor x="577" y="5" name="ogonek"/>
  <anchor x="394" y="1577" name="top"/>
  <anchor x="20" y="1278" name="topleft"/>
  <anchor x="739" y="1278" name="topright"/>
  <outline>
    <contour>
      <point x="185" y="1715" type="line"/>
      <point x="602" y="1715" type="line"/>
      <point x="602" y="1835" type="line"/>
      <point x="185" y="1835" type="line"/>
    </contour>
    <component base="O"/>
    <component base="dieresiscomb.case" xOffset="92"/>
  </outline>
</glyph>
<glyph name="odieresismacron" format="2">
  <advance width="725"/>
  <unicode hex="022B"/>
  <anchor x="363" y="1594.48" name="top"/>
  <anchor x="363" y="0" name="bottom"/>
  <anchor x="363" y="499" name="center"/>
  <anchor x="543" y="5" name="ogonek"/>
  <anchor x="685" y="998" name="topright"/>
  <outline>
    <contour>
      <point x="154" y="1461" type="line"/>
      <point x="571" y="1461" type="line"/>
      <point x="571" y="1582" type="line"/>
      <point x="154" y="1582" type="line"/>
    </contour>
    <component base="o"/>
    <component base="dieresiscomb" xOffset="61"/>
  </outline>
</glyph>
<glyph name="Otildemacron" format="2">
  <advance width="789"/>
  <unicode hex="022C"/>
  <anchor x="394" y="1843.86" name="top"/>
  <anchor x="394" y="0" name="bottom"/>
  <anchor x="394" y="639" name="center"/>
  <anchor x="577" y="5" name="ogonek"/>
  <anchor x="20" y="1278" name="topleft"/>
  <anchor x="739" y="1278" name="topright"/>
  <outline>
    <contour>
      <point x="185" y="1707" type="line"/>
      <point x="602" y="1707" type="line"/>
      <point x="602" y="1828" type="line"/>
      <point x="185" y="1828" type="line"/>
    </contour>
    <component base="O"/>
    <component base="tildecomb.case" xOffset="68"/>
  </outline>
</glyph>
<glyph name="otildemacron" format="2">
  <advance width="725"/>
  <unicode hex="022D"/>
  <anchor x="364" y="1589.48" name="top"/>
  <anchor x="363" y="0" name="bottom"/>
  <anchor x="363" y="499" name="center"/>
  <anchor x="543" y="5" name="ogonek"/>
  <anchor x="685" y="998" name="topright"/>
  <outline>
    <contour>
      <point x="155" y="1456" type="line"/>
      <point x="572" y="1456" type="line"/>
      <point x="572" y="1577" type="line"/>
      <point x="155" y="1577" type="line"/>
    </contour>
    <component base="o"/>
    <component base="tildecomb" xOffset="38"/>
  </outline>
</glyph>
<glyph name="Odotaccentmacron" format="2">
  <advance width="789"/>
  <unicode hex="0230"/>
  <anchor x="394" y="0" name="bottom"/>
  <anchor x="394" y="639" name="center"/>
  <anchor x="577" y="5" name="ogonek"/>
  <anchor x="394" y="1571" name="top"/>
  <anchor x="20" y="1278" name="topleft"/>
  <anchor x="739" y="1278" name="topright"/>
  <outline>
    <contour>
      <point x="185" y="1709" type="line"/>
      <point x="602" y="1709" type="line"/>
      <point x="602" y="1829" type="line"/>
      <point x="185" y="1829" type="line"/>
    </contour>
    <component base="O"/>
    <component base="dotaccentcomb.case" xOffset="205"/>
  </outline>
</glyph>
<glyph name="odotaccentmacron" format="2">
  <advance width="725"/>
  <unicode hex="0231"/>
  <anchor x="363" y="1592.48" name="top"/>
  <anchor x="363" y="0" name="bottom"/>
  <anchor x="363" y="499" name="center"/>
  <anchor x="543" y="5" name="ogonek"/>
  <anchor x="685" y="998" name="topright"/>
  <outline>
    <contour>
      <point x="154" y="1459" type="line"/>
      <point x="571" y="1459" type="line"/>
      <point x="571" y="1580" type="line"/>
      <point x="154" y="1580" type="line"/>
    </contour>
    <component base="o"/>
    <component base="dotaccentcomb" xOffset="174"/>
  </outline>
</glyph>
<glyph name="jdotless" format="2">
  <advance width="361"/>
  <unicode hex="0237"/>
  <anchor x="181" y="-350" name="bottom"/>
  <anchor x="181" y="998" name="top"/>
  <outline>
    <contour>
      <point x="96" y="203" type="line"/>
      <point x="270" y="203" type="line"/>
      <point x="270" y="998" type="line"/>
      <point x="96" y="998" type="line"/>
    </contour>
    <component base="jbottom"/>
  </outline>
</glyph>
<glyph name="schwa" format="2">
  <advance width="679"/>
  <unicode hex="0259"/>
  <outline>
    <contour>
      <point x="330" y="-15" type="curve" smooth="yes"/>
      <point x="520" y="-15"/>
      <point x="613" y="104"/>
      <point x="613" y="326" type="curve" smooth="yes"/>
      <point x="613" y="693" type="line" smooth="yes"/>
      <point x="613" y="907"/>
      <point x="524" y="1014"/>
      <point x="330" y="1014" type="curve" smooth="yes"/>
      <point x="229" y="1014"/>
      <point x="144" y="981"/>
      <point x="86" y="944" type="curve"/>
      <point x="74" y="790" type="line"/>
      <point x="138" y="830"/>
      <point x="216" y="862"/>
      <point x="296" y="862" type="curve" smooth="yes"/>
      <point x="402" y="862"/>
      <point x="441" y="807"/>
      <point x="441" y="689" type="curve" smooth="yes"/>
      <point x="441" y="527" type="line"/>
      <point x="441" y="494" type="line"/>
      <point x="441" y="301" type="line" smooth="yes"/>
      <point x="441" y="187"/>
      <point x="409" y="129"/>
      <point x="330" y="129" type="curve" smooth="yes"/>
      <point x="253" y="129"/>
      <point x="223" y="186"/>
      <point x="223" y="301" type="curve" smooth="yes"/>
      <point x="223" y="381"/>
      <point x="223" y="468"/>
      <point x="223" y="583" type="curve"/>
      <point x="65" y="583" type="line"/>
      <point x="58" y="526"/>
      <point x="56" y="474"/>
      <point x="56" y="419" type="curve" smooth="yes"/>
      <point x="56" y="314" type="line" smooth="yes"/>
      <point x="56" y="99"/>
      <point x="145" y="-15"/>
    </contour>
    <contour>
      <point x="106" y="445" type="line"/>
      <point x="506" y="445" type="line"/>
      <point x="506" y="583" type="line"/>
      <point x="106" y="583" type="line"/>
    </contour>
  </outline>
</glyph>
<glyph name="primemod" format="2">
  <advance width="284"/>
  <unicode hex="02B9"/>
  <outline>
    <contour>
      <point x="208" y="922" type="line"/>
      <point x="224" y="1329" type="line"/>
      <point x="60" y="1329" type="line"/>
      <point x="76" y="922" type="line"/>
    </contour>
  </outline>
</glyph>
<glyph name="doubleprimemod" format="2">
  <advance width="537"/>
  <unicode hex="02BA"/>
  <outline>
    <contour>
      <point x="329" y="922" type="line"/>
      <point x="461" y="922" type="line"/>
      <point x="477" y="1329" type="line"/>
      <point x="313" y="1329" type="line"/>
    </contour>
    <contour>
      <point x="76" y="922" type="line"/>
      <point x="208" y="922" type="line"/>
      <point x="224" y="1329" type="line"/>
      <point x="60" y="1329" type="line"/>
    </contour>
  </outline>
</glyph>
<glyph name="apostrophemod" format="2">
  <advance width="401"/>
  <unicode hex="02BC"/>
  <outline>
    <contour>
      <point x="289" y="1278" type="curve"/>
      <point x="144" y="1278" type="line"/>
      <point x="148" y="1239"/>
      <point x="151" y="1209"/>
      <point x="151" y="1175" type="curve" smooth="yes"/>
      <point x="151" y="1064"/>
      <point x="132" y="974"/>
      <point x="100" y="896" type="curve"/>
      <point x="204" y="864" type="line"/>
      <point x="269" y="957"/>
      <point x="297" y="1061"/>
      <point x="297" y="1186" type="curve" smooth="yes"/>
      <point x="297" y="1225"/>
      <point x="292" y="1256"/>
    </contour>
  </outline>
</glyph>
<glyph name="ringhalfright" format="2">
  <advance width="371"/>
  <unicode hex="02BE"/>
  <anchor x="100" y="998" name="_top"/>
  <anchor x="101" y="1375" name="top"/>
  <outline>
    <contour>
      <point x="100" y="1305" type="line"/>
      <point x="145" y="1305"/>
      <point x="170" y="1280"/>
      <point x="170" y="1238" type="curve" smooth="yes"/>
      <point x="170" y="1235" type="line" smooth="yes"/>
      <point x="170" y="1193"/>
      <point x="145" y="1168"/>
      <point x="100" y="1168" type="curve"/>
      <point x="100" y="1081" type="line"/>
      <point x="214" y="1081"/>
      <point x="271" y="1146"/>
      <point x="271" y="1234" type="curve" smooth="yes"/>
      <point x="271" y="1239" type="line" smooth="yes"/>
      <point x="271" y="1328"/>
      <point x="214" y="1392"/>
      <point x="100" y="1392" type="curve"/>
    </contour>
  </outline>
</glyph>
<glyph name="ringhalfleft" format="2">
  <advance width="371"/>
  <unicode hex="02BF"/>
  <anchor x="271" y="998" name="_top"/>
  <anchor x="271" y="1374" name="top"/>
  <outline>
    <contour>
      <point x="271" y="1305" type="curve"/>
      <point x="271" y="1392" type="line"/>
      <point x="157" y="1392"/>
      <point x="100" y="1328"/>
      <point x="100" y="1239" type="curve" smooth="yes"/>
      <point x="100" y="1234" type="line" smooth="yes"/>
      <point x="100" y="1146"/>
      <point x="157" y="1081"/>
      <point x="271" y="1081" type="curve"/>
      <point x="271" y="1168" type="line"/>
      <point x="226" y="1168"/>
      <point x="201" y="1193"/>
      <point x="201" y="1235" type="curve" smooth="yes"/>
      <point x="201" y="1238" type="line" smooth="yes"/>
      <point x="201" y="1280"/>
      <point x="226" y="1305"/>
    </contour>
  </outline>
</glyph>
<glyph name="verticallinemod" format="2">
  <advance width="334"/>
  <unicode hex="02C8"/>
  <anchor x="168" y="998" name="_top"/>
  <anchor x="168" y="1375" name="top"/>
  <outline>
    <contour>
      <point x="100" y="1098" type="line"/>
      <point x="234" y="1098" type="line"/>
      <point x="234" y="1399" type="line"/>
      <point x="100" y="1399" type="line"/>
    </contour>
  </outline>
</glyph>
<glyph name="fourthtonechinese" format="2">
  <advance width="488"/>
  <unicode hex="02CB"/>
  <anchor x="323" y="998" name="_top"/>
  <anchor x="250" y="1322" name="top"/>
  <outline>
    <contour>
      <point x="274" y="1349" type="line"/>
      <point x="96" y="1349" type="line"/>
      <point x="96" y="1349" type="line"/>
      <point x="252" y="1092" type="line"/>
      <point x="392" y="1092" type="line"/>
      <point x="392" y="1092" type="line"/>
    </contour>
  </outline>
</glyph>
<glyph name="brevecomb" format="2">
  <unicode hex="0306"/>
  <anchor x="303" y="998" name="_top"/>
  <anchor x="304" y="1319" name="top"/>
  <outline>
    <contour>
      <point x="303" y="1091" type="curve" smooth="yes"/>
      <point x="452" y="1091"/>
      <point x="505" y="1184"/>
      <point x="505" y="1349" type="curve"/>
      <point x="392" y="1349" type="line"/>
      <point x="392" y="1259"/>
      <point x="369" y="1207"/>
      <point x="303" y="1207" type="curve" smooth="yes"/>
      <point x="238" y="1207"/>
      <point x="215" y="1259"/>
      <point x="215" y="1349" type="curve"/>
      <point x="102" y="1349" type="line"/>
      <point x="102" y="1184"/>
      <point x="155" y="1091"/>
    </contour>
  </outline>
</glyph>
<glyph name="hookabovecomb" format="2">
  <unicode hex="0309"/>
  <anchor x="203" y="998" name="_top"/>
  <anchor x="208" y="1384" name="top"/>
  <outline>
    <contour>
      <point x="168" y="1080" type="curve"/>
      <point x="153" y="1180" type="line"/>
      <point x="203" y="1197"/>
      <point x="236" y="1217"/>
      <point x="236" y="1258" type="curve" smooth="yes"/>
      <point x="236" y="1290"/>
      <point x="216" y="1306"/>
      <point x="181" y="1306" type="curve" smooth="yes"/>
      <point x="152" y="1306"/>
      <point x="127" y="1297"/>
      <point x="105" y="1286" type="curve"/>
      <point x="113" y="1384" type="line"/>
      <point x="137" y="1397"/>
      <point x="176" y="1407"/>
      <point x="215" y="1407" type="curve" smooth="yes"/>
      <point x="307" y="1407"/>
      <point x="361" y="1361"/>
      <point x="361" y="1272" type="curve" smooth="yes"/>
      <point x="361" y="1161"/>
      <point x="286" y="1110"/>
    </contour>
  </outline>
</glyph>
<glyph name="hungarumlautcomb" format="2">
  <unicode hex="030B"/>
  <anchor x="270" y="998" name="_top"/>
  <anchor x="358" y="1317" name="top"/>
  <outline>
    <contour>
      <point x="414" y="1349" type="line"/>
      <point x="320" y="1092" type="line"/>
      <point x="320" y="1092" type="line"/>
      <point x="437" y="1092" type="line"/>
      <point x="564" y="1349" type="line"/>
      <point x="564" y="1349" type="line"/>
    </contour>
    <contour>
      <point x="193" y="1349" type="line"/>
      <point x="99" y="1092" type="line"/>
      <point x="99" y="1092" type="line"/>
      <point x="216" y="1092" type="line"/>
      <point x="343" y="1344" type="line"/>
      <point x="343" y="1349" type="line"/>
    </contour>
  </outline>
</glyph>
<glyph name="caroncomb" format="2">
  <unicode hex="030C"/>
  <anchor x="312" y="998" name="_top"/>
  <anchor x="312" y="1304" name="top"/>
  <outline>
    <contour>
      <point x="214" y="1092" type="line"/>
      <point x="409" y="1092" type="line"/>
      <point x="524" y="1349" type="line"/>
      <point x="524" y="1349" type="line"/>
      <point x="396" y="1349" type="line"/>
      <point x="316" y="1189" type="line"/>
      <point x="308" y="1189" type="line"/>
      <point x="228" y="1349" type="line"/>
      <point x="100" y="1349" type="line"/>
      <point x="100" y="1349" type="line"/>
    </contour>
  </outline>
</glyph>
<glyph name="dblgravecomb" format="2">
  <unicode hex="030F"/>
  <anchor x="400" y="998" name="_top"/>
  <anchor x="305" y="1322" name="top"/>
  <outline>
    <contour>
      <point x="254" y="1349" type="line"/>
      <point x="104" y="1349" type="line"/>
      <point x="104" y="1349" type="line"/>
      <point x="231" y="1092" type="line"/>
      <point x="348" y="1092" type="line"/>
      <point x="348" y="1092" type="line"/>
    </contour>
    <contour>
      <point x="475" y="1349" type="line"/>
      <point x="325" y="1349" type="line"/>
      <point x="325" y="1344" type="line"/>
      <point x="452" y="1092" type="line"/>
      <point x="569" y="1092" type="line"/>
      <point x="569" y="1092" type="line"/>
    </contour>
  </outline>
</glyph>
<glyph name="breveinvertedcomb" format="2">
  <unicode hex="0311"/>
  <anchor x="303" y="998" name="_top"/>
  <anchor x="304" y="1322" name="top"/>
  <outline>
    <contour>
      <point x="303" y="1350" type="curve" smooth="yes"/>
      <point x="155" y="1350"/>
      <point x="102" y="1257"/>
      <point x="102" y="1092" type="curve"/>
      <point x="215" y="1092" type="line"/>
      <point x="215" y="1182"/>
      <point x="238" y="1234"/>
      <point x="303" y="1234" type="curve" smooth="yes"/>
      <point x="369" y="1234"/>
      <point x="392" y="1182"/>
      <point x="392" y="1092" type="curve"/>
      <point x="505" y="1092" type="line"/>
      <point x="505" y="1257"/>
      <point x="452" y="1350"/>
    </contour>
  </outline>
</glyph>
<glyph name="commaturnedabovecomb" format="2">
  <unicode hex="0312"/>
  <anchor x="197" y="998" name="_top"/>
  <anchor x="197" y="1357" name="top"/>
  <outline>
    <contour>
      <point x="114" y="1093" type="curve"/>
      <point x="258" y="1093" type="line"/>
      <point x="256" y="1117"/>
      <point x="255" y="1139"/>
      <point x="255" y="1162" type="curve" smooth="yes"/>
      <point x="255" y="1245"/>
      <point x="273" y="1310"/>
      <point x="305" y="1367" type="curve"/>
      <point x="196" y="1404" type="line"/>
      <point x="134" y="1330"/>
      <point x="110" y="1254"/>
      <point x="110" y="1161" type="curve" smooth="yes"/>
      <point x="110" y="1133"/>
      <point x="112" y="1110"/>
    </contour>
  </outline>
</glyph>
<glyph name="horncomb" format="2">
  <unicode hex="031B"/>
  <anchor x="273" y="998" name="_topright"/>
  <anchor x="349" y="1213" name="topright"/>
  <outline>
    <contour>
      <point x="160" y="912" type="line"/>
      <point x="284" y="951"/>
      <point x="335" y="1026"/>
      <point x="335" y="1123" type="curve" smooth="yes"/>
      <point x="335" y="1156"/>
      <point x="330" y="1185"/>
      <point x="323" y="1212" type="curve"/>
      <point x="170" y="1212" type="line"/>
      <point x="176" y="1187"/>
      <point x="181" y="1159"/>
      <point x="181" y="1130" type="curve" smooth="yes"/>
      <point x="181" y="1066"/>
      <point x="155" y="1019"/>
      <point x="98" y="987" type="curve"/>
    </contour>
  </outline>
</glyph>
<glyph name="dotbelowcomb" format="2">
  <unicode hex="0323"/>
  <anchor x="189" y="0" name="_bottom"/>
  <anchor x="189" y="-351" name="bottom"/>
  <outline>
    <contour>
      <point x="188" y="-337" type="curve" smooth="yes"/>
      <point x="248" y="-337"/>
      <point x="278" y="-299"/>
      <point x="278" y="-231" type="curve" smooth="yes"/>
      <point x="278" y="-224" type="line" smooth="yes"/>
      <point x="278" y="-156"/>
      <point x="248" y="-119"/>
      <point x="188" y="-119" type="curve" smooth="yes"/>
      <point x="129" y="-119"/>
      <point x="100" y="-156"/>
      <point x="100" y="-224" type="curve" smooth="yes"/>
      <point x="100" y="-231" type="line" smooth="yes"/>
      <point x="100" y="-299"/>
      <point x="129" y="-337"/>
    </contour>
  </outline>
</glyph>
<glyph name="commaaccentcomb" format="2">
  <unicode hex="0326"/>
  <anchor x="195" y="0" name="_bottom"/>
  <anchor x="197" y="-407" name="bottom"/>
  <outline>
    <contour>
      <point x="269" y="-96" type="curve"/>
      <point x="125" y="-96" type="line"/>
      <point x="127" y="-120"/>
      <point x="128" y="-142"/>
      <point x="128" y="-165" type="curve" smooth="yes"/>
      <point x="128" y="-248"/>
      <point x="110" y="-313"/>
      <point x="78" y="-370" type="curve"/>
      <point x="187" y="-407" type="line"/>
      <point x="249" y="-333"/>
      <point x="273" y="-257"/>
      <point x="273" y="-164" type="curve" smooth="yes"/>
      <point x="273" y="-136"/>
      <point x="271" y="-113"/>
    </contour>
  </outline>
</glyph>
<glyph name="ogonekcomb" format="2">
  <unicode hex="0328"/>
  <anchor x="391" y="0" name="_ogonek"/>
  <outline>
    <contour>
      <point x="276" y="-335" type="curve" smooth="yes"/>
      <point x="315" y="-335"/>
      <point x="355" y="-327"/>
      <point x="382" y="-315" type="curve"/>
      <point x="394" y="-191" type="line"/>
      <point x="370" y="-201"/>
      <point x="348" y="-206"/>
      <point x="321" y="-206" type="curve" smooth="yes"/>
      <point x="272" y="-206"/>
      <point x="243" y="-181"/>
      <point x="243" y="-136" type="curve" smooth="yes"/>
      <point x="243" y="-135" type="line" smooth="yes"/>
      <point x="243" y="-80"/>
      <point x="281" y="-41"/>
      <point x="359" y="0" type="curve"/>
      <point x="359" y="7" type="line"/>
      <point x="254" y="6" type="line"/>
      <point x="254" y="-4" type="line"/>
      <point x="163" y="-43"/>
      <point x="115" y="-99"/>
      <point x="115" y="-190" type="curve" smooth="yes"/>
      <point x="115" y="-191" type="line" smooth="yes"/>
      <point x="115" y="-285"/>
      <point x="178" y="-335"/>
    </contour>
  </outline>
</glyph>
<glyph name="strokeshortcomb" format="2">
  <unicode hex="0335"/>
  <anchor x="312" y="657" name="_center"/>
  <outline>
    <contour>
      <point x="112" y="601" type="line"/>
      <point x="511" y="601" type="line"/>
      <point x="511" y="714" type="line"/>
      <point x="112" y="714" type="line"/>
    </contour>
  </outline>
</glyph>
<glyph name="pi" format="2">
  <advance width="847"/>
  <unicode hex="03C0"/>
  <outline>
    <contour>
      <point x="30" y="848" type="line"/>
      <point x="805" y="848" type="line"/>
      <point x="817" y="989" type="line"/>
      <point x="30" y="989" type="line"/>
    </contour>
    <contour>
      <point x="162" y="0" type="line"/>
      <point x="333" y="0" type="line"/>
      <point x="333" y="960" type="line"/>
      <point x="162" y="960" type="line"/>
    </contour>
    <contour>
      <point x="512" y="-1" type="line"/>
      <point x="683" y="-1" type="line"/>
      <point x="683" y="959" type="line"/>
      <point x="512" y="959" type="line"/>
    </contour>
  </outline>
</glyph>
<glyph name="llinebelow" format="2">
  <advance width="356"/>
  <unicode hex="1E3B"/>
  <anchor x="179.36" y="-256" name="bottom"/>
  <anchor x="179" y="667" name="center"/>
  <anchor x="179" y="1329" name="top"/>
  <anchor x="376" y="1329" name="topright"/>
  <outline>
    <contour>
      <point x="-13" y="-271" type="line"/>
      <point x="371" y="-271" type="line"/>
      <point x="371" y="-148" type="line"/>
      <point x="-13" y="-148" type="line"/>
    </contour>
    <component base="l"/>
  </outline>
</glyph>
<glyph name="Otildedieresis" format="2">
  <advance width="789"/>
  <unicode hex="1E4E"/>
  <anchor x="394" y="1863.46" name="top"/>
  <anchor x="394" y="0" name="bottom"/>
  <anchor x="394" y="639" name="center"/>
  <anchor x="577" y="5" name="ogonek"/>
  <anchor x="20" y="1278" name="topleft"/>
  <anchor x="739" y="1278" name="topright"/>
  <outline>
    <contour>
      <point x="273" y="1683" type="curve" smooth="yes"/>
      <point x="329" y="1683"/>
      <point x="354" y="1720"/>
      <point x="354" y="1784" type="curve" smooth="yes"/>
      <point x="354" y="1794" type="line" smooth="yes"/>
      <point x="354" y="1858"/>
      <point x="329" y="1894"/>
      <point x="273" y="1894" type="curve" smooth="yes"/>
      <point x="217" y="1894"/>
      <point x="192" y="1858"/>
      <point x="192" y="1794" type="curve" smooth="yes"/>
      <point x="192" y="1784" type="line" smooth="yes"/>
      <point x="192" y="1720"/>
      <point x="217" y="1683"/>
    </contour>
    <contour>
      <point x="514" y="1683" type="curve" smooth="yes"/>
      <point x="569" y="1683"/>
      <point x="595" y="1721"/>
      <point x="595" y="1784" type="curve" smooth="yes"/>
      <point x="595" y="1794" type="line" smooth="yes"/>
      <point x="595" y="1857"/>
      <point x="569" y="1894"/>
      <point x="514" y="1894" type="curve" smooth="yes"/>
      <point x="457" y="1894"/>
      <point x="433" y="1857"/>
      <point x="433" y="1794" type="curve" smooth="yes"/>
      <point x="433" y="1784" type="line" smooth="yes"/>
      <point x="433" y="1721"/>
      <point x="457" y="1683"/>
    </contour>
    <component base="O"/>
    <component base="tildecomb.case" xOffset="68"/>
  </outline>
</glyph>
<glyph name="otildedieresis" format="2">
  <advance width="725"/>
  <unicode hex="1E4F"/>
  <anchor x="364" y="1634.56" name="top"/>
  <anchor x="363" y="0" name="bottom"/>
  <anchor x="363" y="499" name="center"/>
  <anchor x="543" y="5" name="ogonek"/>
  <anchor x="685" y="998" name="topright"/>
  <outline>
    <contour>
      <point x="243" y="1436" type="curve" smooth="yes"/>
      <point x="299" y="1436"/>
      <point x="324" y="1473"/>
      <point x="324" y="1537" type="curve" smooth="yes"/>
      <point x="324" y="1547" type="line" smooth="yes"/>
      <point x="324" y="1611"/>
      <point x="299" y="1647"/>
      <point x="243" y="1647" type="curve" smooth="yes"/>
      <point x="187" y="1647"/>
      <point x="162" y="1611"/>
      <point x="162" y="1547" type="curve" smooth="yes"/>
      <point x="162" y="1537" type="line" smooth="yes"/>
      <point x="162" y="1473"/>
      <point x="187" y="1436"/>
    </contour>
    <contour>
      <point x="484" y="1436" type="curve" smooth="yes"/>
      <point x="539" y="1436"/>
      <point x="565" y="1474"/>
      <point x="565" y="1537" type="curve" smooth="yes"/>
      <point x="565" y="1547" type="line" smooth="yes"/>
      <point x="565" y="1610"/>
      <point x="539" y="1647"/>
      <point x="484" y="1647" type="curve" smooth="yes"/>
      <point x="427" y="1647"/>
      <point x="403" y="1610"/>
      <point x="403" y="1547" type="curve" smooth="yes"/>
      <point x="403" y="1537" type="line" smooth="yes"/>
      <point x="403" y="1474"/>
      <point x="427" y="1436"/>
    </contour>
    <component base="o"/>
    <component base="tildecomb" xOffset="38"/>
  </outline>
</glyph>
<glyph name="Sacutedotaccent" format="2">
  <advance width="622"/>
  <unicode hex="1E64"/>
  <anchor x="298" y="1854.58" name="top"/>
  <anchor x="298" y="0" name="bottom"/>
  <outline>
    <contour>
      <point x="297" y="1685" type="curve" smooth="yes"/>
      <point x="355" y="1685"/>
      <point x="384" y="1720"/>
      <point x="384" y="1784" type="curve" smooth="yes"/>
      <point x="384" y="1789" type="line" smooth="yes"/>
      <point x="384" y="1853"/>
      <point x="355" y="1888"/>
      <point x="297" y="1888" type="curve" smooth="yes"/>
      <point x="240" y="1888"/>
      <point x="212" y="1853"/>
      <point x="212" y="1789" type="curve" smooth="yes"/>
      <point x="212" y="1784" type="line" smooth="yes"/>
      <point x="212" y="1720"/>
      <point x="240" y="1685"/>
    </contour>
    <component base="S"/>
    <component base="acutecomb.case" xOffset="122"/>
  </outline>
</glyph>
<glyph name="sacutedotaccent" format="2">
  <advance width="565"/>
  <unicode hex="1E65"/>
  <anchor x="280.22" y="1632.6" name="top"/>
  <anchor x="277" y="0" name="bottom"/>
  <outline>
    <contour>
      <point x="279" y="1434" type="curve" smooth="yes"/>
      <point x="338" y="1434"/>
      <point x="367" y="1471"/>
      <point x="367" y="1538" type="curve" smooth="yes"/>
      <point x="367" y="1544" type="line" smooth="yes"/>
      <point x="367" y="1611"/>
      <point x="338" y="1647"/>
      <point x="279" y="1647" type="curve" smooth="yes"/>
      <point x="221" y="1647"/>
      <point x="193" y="1611"/>
      <point x="193" y="1544" type="curve" smooth="yes"/>
      <point x="193" y="1538" type="line" smooth="yes"/>
      <point x="193" y="1471"/>
      <point x="221" y="1434"/>
    </contour>
    <component base="s"/>
    <component base="acutecomb" xOffset="109"/>
  </outline>
</glyph>
<glyph name="Scarondotaccent" format="2">
  <advance width="622"/>
  <unicode hex="1E66"/>
  <anchor x="298" y="1844.58" name="top"/>
  <anchor x="298" y="0" name="bottom"/>
  <outline>
    <contour>
      <point x="297" y="1675" type="curve" smooth="yes"/>
      <point x="355" y="1675"/>
      <point x="384" y="1710"/>
      <point x="384" y="1774" type="curve" smooth="yes"/>
      <point x="384" y="1779" type="line" smooth="yes"/>
      <point x="384" y="1843"/>
      <point x="355" y="1878"/>
      <point x="297" y="1878" type="curve" smooth="yes"/>
      <point x="240" y="1878"/>
      <point x="212" y="1843"/>
      <point x="212" y="1779" type="curve" smooth="yes"/>
      <point x="212" y="1774" type="line" smooth="yes"/>
      <point x="212" y="1710"/>
      <point x="240" y="1675"/>
    </contour>
    <component base="S"/>
    <component base="caroncomb.case" xOffset="-44"/>
  </outline>
</glyph>
<glyph name="scarondotaccent" format="2">
  <advance width="565"/>
  <unicode hex="1E67"/>
  <anchor x="275.22" y="1619.6" name="top"/>
  <anchor x="277" y="0" name="bottom"/>
  <outline>
    <contour>
      <point x="274" y="1421" type="curve" smooth="yes"/>
      <point x="333" y="1421"/>
      <point x="362" y="1458"/>
      <point x="362" y="1525" type="curve" smooth="yes"/>
      <point x="362" y="1531" type="line" smooth="yes"/>
      <point x="362" y="1598"/>
      <point x="333" y="1634"/>
      <point x="274" y="1634" type="curve" smooth="yes"/>
      <point x="216" y="1634"/>
      <point x="188" y="1598"/>
      <point x="188" y="1531" type="curve" smooth="yes"/>
      <point x="188" y="1525" type="line" smooth="yes"/>
      <point x="188" y="1458"/>
      <point x="216" y="1421"/>
    </contour>
    <component base="s"/>
    <component base="caroncomb" xOffset="-37"/>
  </outline>
</glyph>
<glyph name="Ohorntilde" format="2">
  <advance width="789"/>
  <unicode hex="1EE0"/>
  <anchor x="393.66" y="1570" name="top"/>
  <anchor x="394" y="0" name="bottom"/>
  <anchor x="394" y="639" name="center"/>
  <anchor x="577" y="5" name="ogonek"/>
  <anchor x="20" y="1278" name="topleft"/>
  <anchor x="816" y="1492" name="topright"/>
  <outline>
    <contour>
      <point x="489" y="1397" type="curve" smooth="yes"/>
      <point x="567" y="1397"/>
      <point x="598" y="1453"/>
      <point x="598" y="1550" type="curve" smooth="yes"/>
      <point x="598" y="1580" type="line"/>
      <point x="500" y="1580" type="line"/>
      <point x="500" y="1571" type="line" smooth="yes"/>
      <point x="500" y="1539"/>
      <point x="493" y="1523"/>
      <point x="466" y="1523" type="curve" smooth="yes"/>
      <point x="429" y="1523"/>
      <point x="365" y="1570"/>
      <point x="297" y="1570" type="curve" smooth="yes"/>
      <point x="219" y="1570"/>
      <point x="188" y="1512"/>
      <point x="188" y="1416" type="curve" smooth="yes"/>
      <point x="188" y="1387" type="line"/>
      <point x="285" y="1387" type="line"/>
      <point x="285" y="1395" type="line" smooth="yes"/>
      <point x="285" y="1425"/>
      <point x="294" y="1442"/>
      <point x="321" y="1442" type="curve" smooth="yes"/>
      <point x="358" y="1442"/>
      <point x="426" y="1397"/>
    </contour>
    <component base="Ohorn"/>
  </outline>
</glyph>
<glyph name="Uhorntilde" format="2">
  <advance width="804"/>
  <unicode hex="1EEE"/>
  <anchor x="402" y="1570" name="top"/>
  <anchor x="402" y="0" name="bottom"/>
  <anchor x="582" y="5" name="ogonek"/>
  <anchor x="876" y="1492" name="topright"/>
  <outline>
    <contour>
      <point x="507" y="1397" type="curve" smooth="yes"/>
      <point x="592" y="1397"/>
      <point x="626" y="1453"/>
      <point x="626" y="1550" type="curve" smooth="yes"/>
      <point x="626" y="1580" type="line"/>
      <point x="519" y="1580" type="line"/>
      <point x="519" y="1571" type="line" smooth="yes"/>
      <point x="519" y="1539"/>
      <point x="511" y="1523"/>
      <point x="481" y="1523" type="curve" smooth="yes"/>
      <point x="441" y="1523"/>
      <point x="371" y="1570"/>
      <point x="296" y="1570" type="curve" smooth="yes"/>
      <point x="210" y="1570"/>
      <point x="176" y="1512"/>
      <point x="176" y="1416" type="curve" smooth="yes"/>
      <point x="176" y="1387" type="line"/>
      <point x="283" y="1387" type="line"/>
      <point x="283" y="1395" type="line" smooth="yes"/>
      <point x="283" y="1425"/>
      <point x="292" y="1442"/>
      <point x="322" y="1442" type="curve" smooth="yes"/>
      <point x="363" y="1442"/>
      <point x="438" y="1397"/>
    </contour>
    <component base="Uhorn"/>
  </outline>
</glyph>
<glyph name="dagger" format="2">
  <advance width="670"/>
  <unicode hex="2020"/>
  <outline>
    <contour>
      <point x="43" y="848" type="line"/>
      <point x="337" y="855" type="line"/>
      <point x="627" y="848" type="line"/>
      <point x="627" y="990" type="line"/>
      <point x="335" y="983" type="line"/>
      <point x="43" y="990" type="line"/>
    </contour>
    <contour>
      <point x="245" y="635" type="line"/>
      <point x="245" y="338" type="line"/>
      <point x="283" y="-305" type="line"/>
      <point x="387" y="-305" type="line"/>
      <point x="425" y="339" type="line"/>
      <point x="425" y="635" type="line"/>
      <point x="418" y="908" type="line"/>
      <point x="418" y="937" type="line"/>
      <point x="425" y="1278" type="line"/>
      <point x="245" y="1278" type="line"/>
      <point x="252" y="936" type="line"/>
      <point x="252" y="909" type="line"/>
    </contour>
  </outline>
</glyph>
<glyph name="daggerdbl" format="2">
  <advance width="696"/>
  <unicode hex="2021"/>
  <outline>
    <contour>
      <point x="56" y="848" type="line"/>
      <point x="350" y="855" type="line"/>
      <point x="640" y="848" type="line"/>
      <point x="640" y="990" type="line"/>
      <point x="348" y="983" type="line"/>
      <point x="56" y="990" type="line"/>
    </contour>
    <contour>
      <point x="56" y="126" type="line"/>
      <point x="56" y="-17" type="line"/>
      <point x="348" y="-10" type="line"/>
      <point x="640" y="-17" type="line"/>
      <point x="640" y="126" type="line"/>
      <point x="350" y="119" type="line"/>
    </contour>
    <contour>
      <point x="258" y="-305" type="line"/>
      <point x="438" y="-305" type="line"/>
      <point x="431" y="38" type="line"/>
      <point x="431" y="66" type="line"/>
      <point x="438" y="339" type="line"/>
      <point x="438" y="635" type="line"/>
      <point x="431" y="908" type="line"/>
      <point x="431" y="936" type="line"/>
      <point x="438" y="1278" type="line"/>
      <point x="258" y="1278" type="line"/>
      <point x="265" y="936" type="line"/>
      <point x="265" y="908" type="line"/>
      <point x="258" y="635" type="line"/>
      <point x="258" y="338" type="line"/>
      <point x="265" y="66" type="line"/>
      <point x="265" y="38" type="line"/>
    </contour>
  </outline>
</glyph>
<glyph name="perthousand" format="2">
  <advance width="1644"/>
  <unicode hex="2030"/>
  <outline>
    <contour>
      <point x="1372" y="-22" type="curve" smooth="yes"/>
      <point x="1518" y="-22"/>
      <point x="1590" y="64"/>
      <point x="1590" y="219" type="curve" smooth="yes"/>
      <point x="1590" y="395" type="line" smooth="yes"/>
      <point x="1590" y="550"/>
      <point x="1518" y="636"/>
      <point x="1372" y="636" type="curve" smooth="yes"/>
      <point x="1226" y="636"/>
      <point x="1155" y="550"/>
      <point x="1155" y="395" type="curve" smooth="yes"/>
      <point x="1155" y="219" type="line" smooth="yes"/>
      <point x="1155" y="64"/>
      <point x="1226" y="-22"/>
    </contour>
    <contour>
      <point x="1372" y="102" type="curve" smooth="yes"/>
      <point x="1323" y="102"/>
      <point x="1303" y="137"/>
      <point x="1303" y="211" type="curve" smooth="yes"/>
      <point x="1303" y="402" type="line" smooth="yes"/>
      <point x="1303" y="477"/>
      <point x="1323" y="512"/>
      <point x="1372" y="512" type="curve" smooth="yes"/>
      <point x="1421" y="512"/>
      <point x="1441" y="477"/>
      <point x="1441" y="402" type="curve" smooth="yes"/>
      <point x="1441" y="211" type="line" smooth="yes"/>
      <point x="1441" y="137"/>
      <point x="1421" y="102"/>
    </contour>
    <component base="percent"/>
  </outline>
</glyph>
<glyph name="minute" format="2">
  <advance width="289"/>
  <unicode hex="2032"/>
  <outline>
    <contour>
      <point x="195" y="872" type="line"/>
      <point x="259" y="1329" type="line"/>
      <point x="87" y="1329" type="line"/>
      <point x="61" y="872" type="line"/>
    </contour>
  </outline>
</glyph>
<glyph name="commercialMinusSign" format="2">
  <advance width="564"/>
  <unicode hex="2052"/>
  <outline>
    <contour>
      <point x="58" y="0" type="line"/>
      <point x="193" y="0" type="line"/>
      <point x="506" y="1278" type="line"/>
      <point x="373" y="1278" type="line"/>
    </contour>
    <component base="period" xOffset="-17" yOffset="1058"/>
    <component base="period" xOffset="283"/>
  </outline>
</glyph>
<glyph name="colonsign" format="2">
  <advance width="600"/>
  <unicode hex="20A1"/>
  <anchor x="338" y="0" name="bottom"/>
  <anchor x="338" y="1278" name="top"/>
  <outline>
    <contour>
      <point x="172" y="-175" type="line"/>
      <point x="263" y="-175" type="line"/>
      <point x="282" y="102" type="line"/>
      <point x="191" y="102" type="line"/>
    </contour>
    <contour>
      <point x="311" y="-175" type="line"/>
      <point x="402" y="-175" type="line"/>
      <point x="419" y="102" type="line"/>
      <point x="328" y="102" type="line"/>
    </contour>
    <contour>
      <point x="240" y="1172" type="line"/>
      <point x="331" y="1172" type="line"/>
      <point x="347" y="1444" type="line"/>
      <point x="256" y="1444" type="line"/>
    </contour>
    <contour>
      <point x="378" y="1172" type="line"/>
      <point x="469" y="1172" type="line"/>
      <point x="485" y="1444" type="line"/>
      <point x="394" y="1444" type="line"/>
    </contour>
    <component base="C"/>
  </outline>
</glyph>
<glyph name="franc" format="2">
  <advance width="634"/>
  <unicode hex="20A3"/>
  <outline>
    <contour>
      <point x="126" y="0" type="line"/>
      <point x="305" y="0" type="line"/>
      <point x="305" y="1278" type="line"/>
      <point x="126" y="1278" type="line"/>
    </contour>
    <contour>
      <point x="15" y="221" type="line"/>
      <point x="504" y="221" type="line"/>
      <point x="512" y="349" type="line"/>
      <point x="24" y="349" type="line"/>
    </contour>
    <contour>
      <point x="240" y="571" type="line"/>
      <point x="578" y="571" type="line"/>
      <point x="578" y="731" type="line"/>
      <point x="240" y="731" type="line"/>
    </contour>
    <contour>
      <point x="231" y="1118" type="line"/>
      <point x="588" y="1118" type="line"/>
      <point x="588" y="1278" type="line"/>
      <point x="231" y="1278" type="line"/>
    </contour>
  </outline>
</glyph>
<glyph name="lira" format="2">
  <advance width="655"/>
  <unicode hex="20A4"/>
  <outline>
    <contour>
      <point x="213" y="160" type="line"/>
      <point x="213" y="166" type="line"/>
      <point x="302" y="218"/>
      <point x="354" y="295"/>
      <point x="354" y="495" type="curve" smooth="yes"/>
      <point x="354" y="624"/>
      <point x="313" y="825"/>
      <point x="313" y="966" type="curve" smooth="yes"/>
      <point x="313" y="1083"/>
      <point x="355" y="1138"/>
      <point x="449" y="1138" type="curve" smooth="yes"/>
      <point x="496" y="1138"/>
      <point x="541" y="1130"/>
      <point x="589" y="1111" type="curve"/>
      <point x="577" y="1265" type="line"/>
      <point x="534" y="1283"/>
      <point x="471" y="1297"/>
      <point x="406" y="1297" type="curve" smooth="yes"/>
      <point x="215" y="1297"/>
      <point x="134" y="1195"/>
      <point x="134" y="989" type="curve" smooth="yes"/>
      <point x="134" y="845"/>
      <point x="175" y="651"/>
      <point x="175" y="495" type="curve" smooth="yes"/>
      <point x="175" y="307"/>
      <point x="142" y="236"/>
      <point x="60" y="154" type="curve" smooth="yes"/>
      <point x="60" y="154" type="line"/>
      <point x="60" y="0" type="line"/>
      <point x="610" y="0" type="line"/>
      <point x="610" y="160" type="line"/>
    </contour>
    <contour>
      <point x="64" y="870" type="line"/>
      <point x="55" y="730" type="line"/>
      <point x="550" y="730" type="line"/>
      <point x="559" y="870" type="line"/>
    </contour>
    <contour>
      <point x="64" y="568" type="line"/>
      <point x="55" y="428" type="line"/>
      <point x="550" y="428" type="line"/>
      <point x="559" y="568" type="line"/>
    </contour>
  </outline>
</glyph>
<glyph name="naira" format="2">
  <advance width="910"/>
  <unicode hex="20A6"/>
  <outline>
    <contour>
      <point x="131" y="0" type="line"/>
      <point x="300" y="0" type="line"/>
      <point x="300" y="464" type="line"/>
      <point x="288" y="1091" type="line"/>
      <point x="298" y="1091" type="line"/>
      <point x="388" y="657" type="line"/>
      <point x="524" y="657" type="line"/>
      <point x="391" y="1279" type="line"/>
      <point x="131" y="1279" type="line"/>
    </contour>
    <contour>
      <point x="20" y="599" type="line"/>
      <point x="881" y="599" type="line"/>
      <point x="890" y="727" type="line"/>
      <point x="29" y="727" type="line"/>
    </contour>
    <contour>
      <point x="520" y="0" type="line"/>
      <point x="779" y="0" type="line"/>
      <point x="779" y="1279" type="line"/>
      <point x="611" y="1279" type="line"/>
      <point x="611" y="815" type="line"/>
      <point x="622" y="189" type="line"/>
      <point x="612" y="189" type="line"/>
      <point x="525" y="646" type="line"/>
      <point x="389" y="646" type="line"/>
    </contour>
  </outline>
</glyph>
<glyph name="won" format="2">
  <advance width="1149"/>
  <unicode hex="20A9"/>
  <outline>
    <contour>
      <point x="191" y="0" type="line"/>
      <point x="473" y="0" type="line"/>
      <point x="530" y="634" type="line"/>
      <point x="390" y="634" type="line"/>
      <point x="380" y="512" type="line"/>
      <point x="345" y="149" type="line"/>
      <point x="335" y="149" type="line"/>
      <point x="306" y="512" type="line"/>
      <point x="245" y="1278" type="line"/>
      <point x="66" y="1278" type="line"/>
    </contour>
    <contour>
      <point x="675" y="0" type="line"/>
      <point x="957" y="0" type="line"/>
      <point x="1082" y="1278" type="line"/>
      <point x="903" y="1278" type="line"/>
      <point x="842" y="512" type="line"/>
      <point x="813" y="149" type="line"/>
      <point x="803" y="149" type="line"/>
      <point x="768" y="512" type="line"/>
      <point x="758" y="634" type="line"/>
      <point x="618" y="634" type="line"/>
    </contour>
    <contour>
      <point x="38" y="599" type="line"/>
      <point x="1096" y="599" type="line"/>
      <point x="1105" y="727" type="line"/>
      <point x="47" y="727" type="line"/>
    </contour>
    <contour>
      <point x="451" y="1251" type="line"/>
      <point x="390" y="650" type="line"/>
      <point x="529" y="650" type="line"/>
      <point x="530" y="659" type="line"/>
      <point x="569" y="1105" type="line"/>
      <point x="579" y="1105" type="line"/>
      <point x="618" y="659" type="line"/>
      <point x="619" y="650" type="line"/>
      <point x="758" y="650" type="line"/>
      <point x="697" y="1251" type="line"/>
    </contour>
  </outline>
</glyph>
<glyph name="uni20AA" format="2">
  <advance width="1285"/>
  <unicode hex="20AA"/>
  <outline>
    <contour>
      <point x="413" y="0" type="line"/>
      <point x="872" y="0" type="line" smooth="yes"/>
      <point x="1089" y="0"/>
      <point x="1187" y="112"/>
      <point x="1187" y="315" type="curve" smooth="yes"/>
      <point x="1187" y="1110" type="line"/>
      <point x="1016" y="1110" type="line"/>
      <point x="1016" y="316" type="line" smooth="yes"/>
      <point x="1016" y="198"/>
      <point x="966" y="141"/>
      <point x="860" y="141" type="curve" smooth="yes"/>
      <point x="582" y="141" type="line"/>
      <point x="582" y="831" type="line"/>
      <point x="413" y="831" type="line"/>
    </contour>
    <contour>
      <point x="98" y="1110" type="line"/>
      <point x="98" y="0" type="line"/>
      <point x="269" y="0" type="line"/>
      <point x="269" y="969" type="line"/>
      <point x="560" y="969" type="line" smooth="yes"/>
      <point x="666" y="969"/>
      <point x="716" y="912"/>
      <point x="716" y="794" type="curve" smooth="yes"/>
      <point x="716" y="279" type="line"/>
      <point x="885" y="279" type="line"/>
      <point x="885" y="795" type="line" smooth="yes"/>
      <point x="885" y="998"/>
      <point x="788" y="1110"/>
      <point x="572" y="1110" type="curve" smooth="yes"/>
    </contour>
  </outline>
</glyph>
<glyph name="dong" format="2">
  <advance width="743"/>
  <unicode hex="20AB"/>
  <anchor x="369.515" y="-256" name="bottom"/>
  <anchor x="370" y="499" name="center"/>
  <anchor x="370" y="1329" name="top"/>
  <anchor x="763" y="1329" name="topright"/>
  <outline>
    <contour>
      <point x="74" y="-271" type="line"/>
      <point x="664" y="-271" type="line"/>
      <point x="664" y="-148" type="line"/>
      <point x="74" y="-148" type="line"/>
    </contour>
    <component base="dcroat"/>
  </outline>
</glyph>
<glyph name="kip" format="2">
  <advance width="792"/>
  <unicode hex="20AD"/>
  <anchor x="434" y="0" name="bottom"/>
  <anchor x="434" y="1278" name="top"/>
  <outline>
    <contour>
      <point x="434" y="727" type="line"/>
      <point x="428" y="599" type="line"/>
      <point x="720" y="599" type="line"/>
      <point x="729" y="727" type="line"/>
    </contour>
    <contour>
      <point x="227" y="599" type="line"/>
      <point x="233" y="727" type="line"/>
      <point x="29" y="727" type="line"/>
      <point x="20" y="599" type="line"/>
    </contour>
    <component base="K" xOffset="33"/>
  </outline>
</glyph>
<glyph name="uni20AE" format="2">
  <advance width="644"/>
  <unicode hex="20AE"/>
  <anchor x="322" y="0" name="bottom"/>
  <anchor x="322" y="639" name="center"/>
  <anchor x="322" y="1278" name="top"/>
  <outline>
    <contour>
      <point x="562" y="908" type="line"/>
      <point x="82" y="648" type="line"/>
      <point x="82" y="510" type="line"/>
      <point x="562" y="770" type="line"/>
    </contour>
    <contour>
      <point x="562" y="636" type="line"/>
      <point x="82" y="376" type="line"/>
      <point x="82" y="238" type="line"/>
      <point x="562" y="498" type="line"/>
    </contour>
    <component base="T"/>
  </outline>
</glyph>
<glyph name="peso" format="2">
  <advance width="841"/>
  <unicode hex="20B1"/>
  <outline>
    <contour>
      <point x="239" y="408" type="line"/>
      <point x="409" y="408" type="line" smooth="yes"/>
      <point x="620" y="408"/>
      <point x="715" y="523"/>
      <point x="715" y="743" type="curve" smooth="yes"/>
      <point x="715" y="945" type="line" smooth="yes"/>
      <point x="715" y="1158"/>
      <point x="620" y="1278"/>
      <point x="408" y="1278" type="curve" smooth="yes"/>
      <point x="242" y="1278" type="line"/>
      <point x="242" y="1125" type="line"/>
      <point x="401" y="1125" type="line" smooth="yes"/>
      <point x="499" y="1125"/>
      <point x="538" y="1062"/>
      <point x="538" y="941" type="curve" smooth="yes"/>
      <point x="538" y="746" type="line" smooth="yes"/>
      <point x="538" y="624"/>
      <point x="499" y="561"/>
      <point x="400" y="561" type="curve" smooth="yes"/>
      <point x="239" y="561" type="line"/>
    </contour>
    <contour>
      <point x="25" y="636" type="line"/>
      <point x="247" y="636" type="line"/>
      <point x="242" y="776" type="line"/>
      <point x="34" y="776" type="line"/>
    </contour>
    <contour>
      <point x="136" y="0" type="line"/>
      <point x="314" y="0" type="line"/>
      <point x="314" y="431" type="line"/>
      <point x="312" y="518" type="line"/>
      <point x="312" y="1278" type="line"/>
      <point x="136" y="1278" type="line"/>
    </contour>
    <contour>
      <point x="25" y="900" type="line"/>
      <point x="247" y="900" type="line"/>
      <point x="242" y="1040" type="line"/>
      <point x="34" y="1040" type="line"/>
    </contour>
    <contour>
      <point x="587" y="636" type="line"/>
      <point x="817" y="636" type="line"/>
      <point x="826" y="776" type="line"/>
      <point x="581" y="776" type="line"/>
    </contour>
    <contour>
      <point x="587" y="900" type="line"/>
      <point x="817" y="900" type="line"/>
      <point x="826" y="1040" type="line"/>
      <point x="581" y="1040" type="line"/>
    </contour>
  </outline>
</glyph>
<glyph name="guarani" format="2">
  <advance width="735"/>
  <unicode hex="20B2"/>
  <outline>
    <contour>
      <point x="474" y="1200" type="line"/>
      <point x="474" y="1444" type="line"/>
      <point x="322" y="1444" type="line"/>
      <point x="322" y="1200" type="line"/>
    </contour>
    <contour>
      <point x="474" y="-175" type="line"/>
      <point x="474" y="125" type="line"/>
      <point x="322" y="125" type="line"/>
      <point x="322" y="-175" type="line"/>
    </contour>
    <contour>
      <point x="383" y="-19" type="curve" smooth="yes"/>
      <point x="521" y="-19"/>
      <point x="622" y="42"/>
      <point x="667" y="99" type="curve"/>
      <point x="667" y="733" type="line"/>
      <point x="394" y="733" type="line"/>
      <point x="394" y="575" type="line"/>
      <point x="547" y="575" type="line"/>
      <point x="507" y="660" type="line"/>
      <point x="507" y="184" type="line"/>
      <point x="486" y="159"/>
      <point x="443" y="141"/>
      <point x="394" y="141" type="curve" smooth="yes"/>
      <point x="298" y="141"/>
      <point x="258" y="206"/>
      <point x="258" y="333" type="curve" smooth="yes"/>
      <point x="258" y="877" type="line" smooth="yes"/>
      <point x="258" y="1048"/>
      <point x="310" y="1132"/>
      <point x="450" y="1132" type="curve" smooth="yes"/>
      <point x="535" y="1132"/>
      <point x="599" y="1100"/>
      <point x="648" y="1062" type="curve"/>
      <point x="634" y="1227" type="line"/>
      <point x="588" y="1263"/>
      <point x="508" y="1297"/>
      <point x="408" y="1297" type="curve" smooth="yes"/>
      <point x="187" y="1297"/>
      <point x="78" y="1160"/>
      <point x="78" y="887" type="curve" smooth="yes"/>
      <point x="78" y="340" type="line" smooth="yes"/>
      <point x="78" y="111"/>
      <point x="148" y="-19"/>
    </contour>
  </outline>
</glyph>
<glyph name="cedi" format="2">
  <advance width="600"/>
  <unicode hex="20B5"/>
  <anchor x="338" y="0" name="bottom"/>
  <anchor x="338" y="1278" name="top"/>
  <outline>
    <contour>
      <point x="270" y="-175" type="line"/>
      <point x="422" y="-175" type="line"/>
      <point x="422" y="42" type="line"/>
      <point x="270" y="42" type="line"/>
    </contour>
    <contour>
      <point x="270" y="1203" type="line"/>
      <point x="422" y="1203" type="line"/>
      <point x="422" y="1444" type="line"/>
      <point x="270" y="1444" type="line"/>
    </contour>
    <component base="C"/>
  </outline>
</glyph>
<glyph name="liraTurkish" format="2">
  <advance width="745"/>
  <unicode hex="20BA"/>
  <outline>
    <contour>
      <point x="117" y="0" type="line"/>
      <point x="274" y="0" type="line"/>
      <point x="553" y="0"/>
      <point x="678" y="131"/>
      <point x="679" y="405" type="curve"/>
      <point x="679" y="611" type="line"/>
      <point x="504" y="611" type="line"/>
      <point x="504" y="407" type="line"/>
      <point x="504" y="229"/>
      <point x="433" y="161"/>
      <point x="299" y="160" type="curve"/>
      <point x="296" y="160" type="line"/>
      <point x="296" y="1278" type="line"/>
      <point x="117" y="1278" type="line"/>
    </contour>
    <contour>
      <point x="500" y="1152" type="line"/>
      <point x="20" y="892" type="line"/>
      <point x="20" y="754" type="line"/>
      <point x="500" y="1014" type="line"/>
    </contour>
    <contour>
      <point x="500" y="880" type="line"/>
      <point x="20" y="620" type="line"/>
      <point x="20" y="482" type="line"/>
      <point x="500" y="742" type="line"/>
    </contour>
  </outline>
</glyph>
<glyph name="manat" format="2">
  <advance width="1006"/>
  <unicode hex="20BC"/>
  <outline>
    <contour>
      <point x="503" y="1297" type="curve" smooth="yes"/>
      <point x="230" y="1297"/>
      <point x="91" y="1149"/>
      <point x="91" y="866" type="curve"/>
      <point x="91" y="0" type="line"/>
      <point x="271" y="0" type="line"/>
      <point x="271" y="880" type="line" smooth="yes"/>
      <point x="271" y="1055"/>
      <point x="343" y="1144"/>
      <point x="503" y="1144" type="curve" smooth="yes"/>
      <point x="663" y="1144"/>
      <point x="735" y="1055"/>
      <point x="735" y="880" type="curve" smooth="yes"/>
      <point x="735" y="0" type="line"/>
      <point x="915" y="0" type="line"/>
      <point x="915" y="866" type="line"/>
      <point x="915" y="1149"/>
      <point x="776" y="1297"/>
    </contour>
    <contour>
      <point x="579" y="0" type="line"/>
      <point x="579" y="1444" type="line"/>
      <point x="427" y="1444" type="line"/>
      <point x="427" y="0" type="line"/>
    </contour>
  </outline>
</glyph>
<glyph name="ruble" format="2">
  <advance width="771"/>
  <unicode hex="20BD"/>
  <outline>
    <contour>
      <point x="239" y="478" type="line"/>
      <point x="409" y="478" type="line" smooth="yes"/>
      <point x="620" y="478"/>
      <point x="715" y="593"/>
      <point x="715" y="813" type="curve" smooth="yes"/>
      <point x="715" y="945" type="line" smooth="yes"/>
      <point x="715" y="1158"/>
      <point x="620" y="1278"/>
      <point x="408" y="1278" type="curve" smooth="yes"/>
      <point x="242" y="1278" type="line"/>
      <point x="242" y="1125" type="line"/>
      <point x="401" y="1125" type="line" smooth="yes"/>
      <point x="499" y="1125"/>
      <point x="538" y="1062"/>
      <point x="538" y="941" type="curve" smooth="yes"/>
      <point x="538" y="816" type="line" smooth="yes"/>
      <point x="538" y="694"/>
      <point x="499" y="631"/>
      <point x="400" y="631" type="curve" smooth="yes"/>
      <point x="239" y="631" type="line"/>
    </contour>
    <contour>
      <point x="25" y="197" type="line"/>
      <point x="514" y="197" type="line"/>
      <point x="522" y="325" type="line"/>
      <point x="34" y="325" type="line"/>
    </contour>
    <contour>
      <point x="25" y="480" type="line"/>
      <point x="230" y="480" type="line"/>
      <point x="230" y="608" type="line"/>
      <point x="34" y="608" type="line"/>
    </contour>
    <contour>
      <point x="136" y="0" type="line"/>
      <point x="314" y="0" type="line"/>
      <point x="314" y="501" type="line"/>
      <point x="312" y="588" type="line"/>
      <point x="312" y="1278" type="line"/>
      <point x="136" y="1278" type="line"/>
    </contour>
  </outline>
</glyph>
<glyph name="literSign" format="2">
  <advance width="661"/>
  <unicode hex="2113"/>
  <outline>
    <contour>
      <point x="200" y="480" type="curve"/>
      <point x="200" y="319" type="line"/>
      <point x="459" y="481"/>
      <point x="601" y="612"/>
      <point x="601" y="928" type="curve" smooth="yes"/>
      <point x="601" y="1056" type="line" smooth="yes"/>
      <point x="601" y="1247"/>
      <point x="513" y="1339"/>
      <point x="357" y="1339" type="curve" smooth="yes"/>
      <point x="192" y="1339"/>
      <point x="109" y="1247"/>
      <point x="109" y="1056" type="curve" smooth="yes"/>
      <point x="109" y="395" type="line"/>
      <point x="271" y="395" type="line"/>
      <point x="271" y="1062" type="line" smooth="yes"/>
      <point x="271" y="1151"/>
      <point x="298" y="1195"/>
      <point x="357" y="1195" type="curve" smooth="yes"/>
      <point x="417" y="1195"/>
      <point x="442" y="1151"/>
      <point x="442" y="1065" type="curve" smooth="yes"/>
      <point x="442" y="921" type="line" smooth="yes"/>
      <point x="442" y="704"/>
      <point x="380" y="616"/>
    </contour>
    <contour>
      <point x="194" y="314" type="curve"/>
      <point x="194" y="485" type="line"/>
      <point x="136" y="442"/>
      <point x="72" y="403"/>
      <point x="10" y="365" type="curve"/>
      <point x="10" y="194" type="line"/>
      <point x="73" y="233"/>
      <point x="135" y="272"/>
    </contour>
    <contour>
      <point x="385" y="-14" type="curve" smooth="yes"/>
      <point x="464" y="-14"/>
      <point x="537" y="9"/>
      <point x="583" y="37" type="curve"/>
      <point x="593" y="197" type="line"/>
      <point x="547" y="167"/>
      <point x="488" y="142"/>
      <point x="419" y="142" type="curve" smooth="yes"/>
      <point x="317" y="142"/>
      <point x="276" y="191"/>
      <point x="276" y="303" type="curve" smooth="yes"/>
      <point x="276" y="456" type="line"/>
      <point x="109" y="456" type="line"/>
      <point x="109" y="291" type="line" smooth="yes"/>
      <point x="109" y="91"/>
      <point x="196" y="-14"/>
    </contour>
  </outline>
</glyph>
<glyph name="numero" format="2">
  <advance width="1308"/>
  <unicode hex="2116"/>
  <anchor x="427" y="0" name="bottom"/>
  <anchor x="427" y="1278" name="top"/>
  <outline>
    <contour>
      <point x="882" y="414" type="line"/>
      <point x="1253" y="414" type="line"/>
      <point x="1253" y="528" type="line"/>
      <point x="882" y="528" type="line"/>
    </contour>
    <contour>
      <point x="1067" y="629" type="curve" smooth="yes"/>
      <point x="1197" y="629"/>
      <point x="1260" y="704"/>
      <point x="1260" y="843" type="curve" smooth="yes"/>
      <point x="1260" y="1077" type="line" smooth="yes"/>
      <point x="1260" y="1216"/>
      <point x="1198" y="1290"/>
      <point x="1067" y="1290" type="curve" smooth="yes"/>
      <point x="938" y="1290"/>
      <point x="875" y="1216"/>
      <point x="875" y="1077" type="curve" smooth="yes"/>
      <point x="875" y="843" type="line" smooth="yes"/>
      <point x="875" y="703"/>
      <point x="938" y="629"/>
    </contour>
    <contour>
      <point x="1068" y="740" type="curve" smooth="yes"/>
      <point x="1021" y="740"/>
      <point x="1002" y="775"/>
      <point x="1002" y="832" type="curve" smooth="yes"/>
      <point x="1002" y="1089" type="line" smooth="yes"/>
      <point x="1002" y="1145"/>
      <point x="1021" y="1179"/>
      <point x="1068" y="1179" type="curve" smooth="yes"/>
      <point x="1114" y="1179"/>
      <point x="1133" y="1145"/>
      <point x="1133" y="1089" type="curve" smooth="yes"/>
      <point x="1133" y="832" type="line" smooth="yes"/>
      <point x="1133" y="774"/>
      <point x="1114" y="740"/>
    </contour>
    <component base="N"/>
  </outline>
</glyph>
<glyph name="trademark" format="2">
  <advance width="914"/>
  <unicode hex="2122"/>
  <outline>
    <contour>
      <point x="110" y="639" type="line"/>
      <point x="229" y="639" type="line"/>
      <point x="229" y="1263" type="line"/>
      <point x="110" y="1263" type="line"/>
    </contour>
    <contour>
      <point x="16" y="1176" type="line"/>
      <point x="323" y="1176" type="line"/>
      <point x="323" y="1278" type="line"/>
      <point x="16" y="1278" type="line"/>
    </contour>
    <contour>
      <point x="381" y="639" type="line"/>
      <point x="491" y="639" type="line"/>
      <point x="490" y="861" type="line"/>
      <point x="486" y="1142" type="line"/>
      <point x="493" y="1142" type="line"/>
      <point x="553" y="728" type="line"/>
      <point x="678" y="728" type="line"/>
      <point x="738" y="1142" type="line"/>
      <point x="745" y="1142" type="line"/>
      <point x="741" y="861" type="line"/>
      <point x="740" y="639" type="line"/>
      <point x="850" y="639" type="line"/>
      <point x="848" y="1278" type="line"/>
      <point x="674" y="1278" type="line"/>
      <point x="618" y="869" type="line"/>
      <point x="613" y="869" type="line"/>
      <point x="558" y="1278" type="line"/>
      <point x="383" y="1278" type="line"/>
    </contour>
  </outline>
</glyph>
<glyph name="Ohm" format="2">
  <advance width="744"/>
  <unicode hex="2126"/>
  <outline>
    <contour>
      <point x="372" y="1297" type="curve" smooth="yes"/>
      <point x="161" y="1297"/>
      <point x="56" y="1168"/>
      <point x="56" y="918" type="curve" smooth="yes"/>
      <point x="56" y="440" type="line" smooth="yes"/>
      <point x="56" y="270"/>
      <point x="110" y="198"/>
      <point x="208" y="161" type="curve"/>
      <point x="208" y="152" type="line"/>
      <point x="30" y="153" type="line"/>
      <point x="30" y="0" type="line"/>
      <point x="338" y="0" type="line"/>
      <point x="338" y="164" type="line"/>
      <point x="269" y="185"/>
      <point x="236" y="251"/>
      <point x="236" y="378" type="curve" smooth="yes"/>
      <point x="236" y="935" type="line" smooth="yes"/>
      <point x="236" y="1076"/>
      <point x="276" y="1145"/>
      <point x="372" y="1145" type="curve" smooth="yes"/>
      <point x="468" y="1145"/>
      <point x="508" y="1076"/>
      <point x="508" y="935" type="curve" smooth="yes"/>
      <point x="508" y="378" type="line" smooth="yes"/>
      <point x="508" y="251"/>
      <point x="476" y="185"/>
      <point x="407" y="164" type="curve"/>
      <point x="407" y="0" type="line"/>
      <point x="714" y="0" type="line"/>
      <point x="714" y="153" type="line"/>
      <point x="537" y="152" type="line"/>
      <point x="537" y="161" type="line"/>
      <point x="635" y="198"/>
      <point x="689" y="270"/>
      <point x="689" y="440" type="curve" smooth="yes"/>
      <point x="689" y="918" type="line" smooth="yes"/>
      <point x="689" y="1168"/>
      <point x="583" y="1297"/>
    </contour>
  </outline>
</glyph>
<glyph name="estimated" format="2">
  <advance width="1531"/>
  <unicode hex="212E"/>
  <outline>
    <contour>
      <point x="340" y="581" type="curve"/>
      <point x="1453" y="581" type="line"/>
      <point x="1453" y="606" type="line" smooth="yes"/>
      <point x="1453" y="979"/>
      <point x="1177" y="1227"/>
      <point x="764" y="1227" type="curve" smooth="yes"/>
      <point x="352" y="1227"/>
      <point x="78" y="979"/>
      <point x="78" y="606" type="curve" smooth="yes"/>
      <point x="78" y="226"/>
      <point x="352" y="-10"/>
      <point x="764" y="-10" type="curve" smooth="yes"/>
      <point x="978" y="-10"/>
      <point x="1187" y="86"/>
      <point x="1311" y="230" type="curve"/>
      <point x="1210" y="230" type="line"/>
      <point x="1101" y="116"/>
      <point x="947" y="46"/>
      <point x="767" y="46" type="curve" smooth="yes"/>
      <point x="589" y="46"/>
      <point x="451" y="97"/>
      <point x="348" y="204" type="curve" smooth="yes"/>
      <point x="335" y="218"/>
      <point x="329" y="231"/>
      <point x="329" y="244" type="curve" smooth="yes"/>
      <point x="329" y="574" type="line" smooth="yes"/>
      <point x="329" y="579"/>
      <point x="333" y="581"/>
    </contour>
    <contour>
      <point x="1203" y="983" type="curve"/>
      <point x="1203" y="647" type="line" smooth="yes"/>
      <point x="1203" y="640"/>
      <point x="1200" y="637"/>
      <point x="1193" y="637" type="curve" smooth="yes"/>
      <point x="340" y="637" type="line" smooth="yes"/>
      <point x="333" y="637"/>
      <point x="329" y="640"/>
      <point x="329" y="647" type="curve" smooth="yes"/>
      <point x="329" y="976" type="line" smooth="yes"/>
      <point x="329" y="990"/>
      <point x="336" y="1007"/>
      <point x="348" y="1020" type="curve" smooth="yes"/>
      <point x="430" y="1104"/>
      <point x="599" y="1178"/>
      <point x="767" y="1178" type="curve" smooth="yes"/>
      <point x="932" y="1178"/>
      <point x="1087" y="1129"/>
      <point x="1183" y="1025" type="curve" smooth="yes"/>
      <point x="1196" y="1011"/>
      <point x="1203" y="998"/>
    </contour>
  </outline>
</glyph>
<glyph name="partialdiff" format="2">
  <advance width="734"/>
  <unicode hex="2202"/>
  <outline>
    <contour>
      <point x="221" y="1273" type="curve"/>
      <point x="197" y="1118" type="line"/>
      <point x="229" y="1130"/>
      <point x="265" y="1138"/>
      <point x="306" y="1138" type="curve" smooth="yes"/>
      <point x="430" y="1138"/>
      <point x="482" y="1071"/>
      <point x="483" y="929" type="curve" smooth="yes"/>
      <point x="483" y="904"/>
      <point x="480" y="863"/>
      <point x="448" y="318" type="curve" smooth="yes"/>
      <point x="442" y="191"/>
      <point x="411" y="131"/>
      <point x="335" y="131" type="curve" smooth="yes"/>
      <point x="264" y="131"/>
      <point x="233" y="180"/>
      <point x="233" y="280" type="curve" smooth="yes"/>
      <point x="233" y="299"/>
      <point x="236" y="350"/>
      <point x="244" y="485" type="curve" smooth="yes"/>
      <point x="250" y="608"/>
      <point x="278" y="675"/>
      <point x="353" y="675" type="curve" smooth="yes"/>
      <point x="428" y="675"/>
      <point x="465" y="615"/>
      <point x="460" y="509" type="curve"/>
      <point x="493" y="660" type="line"/>
      <point x="459" y="662" type="line"/>
      <point x="445" y="758"/>
      <point x="401" y="820"/>
      <point x="292" y="820" type="curve" smooth="yes"/>
      <point x="146" y="820"/>
      <point x="82" y="698"/>
      <point x="74" y="489" type="curve" smooth="yes"/>
      <point x="66" y="350"/>
      <point x="64" y="307"/>
      <point x="64" y="288" type="curve" smooth="yes"/>
      <point x="63" y="83"/>
      <point x="148" y="-20"/>
      <point x="332" y="-20" type="curve" smooth="yes"/>
      <point x="513" y="-20"/>
      <point x="607" y="96"/>
      <point x="620" y="308" type="curve" smooth="yes"/>
      <point x="654" y="893"/>
      <point x="658" y="926"/>
      <point x="658" y="946" type="curve" smooth="yes"/>
      <point x="658" y="1173"/>
      <point x="563" y="1295"/>
      <point x="357" y="1295" type="curve" smooth="yes"/>
      <point x="304" y="1295"/>
      <point x="258" y="1286"/>
    </contour>
  </outline>
</glyph>
<glyph name="emptyset" format="2">
  <advance width="1352"/>
  <unicode hex="2205"/>
  <outline>
    <contour>
      <point x="148" y="-94" type="line"/>
      <point x="331" y="-94" type="line"/>
      <point x="1209" y="1175" type="line"/>
      <point x="1026" y="1175" type="line"/>
    </contour>
    <contour>
      <point x="676" y="-22" type="curve" smooth="yes"/>
      <point x="1035" y="-22"/>
      <point x="1274" y="201"/>
      <point x="1274" y="534" type="curve"/>
      <point x="1274" y="559" type="line"/>
      <point x="1274" y="886"/>
      <point x="1035" y="1103"/>
      <point x="676" y="1103" type="curve" smooth="yes"/>
      <point x="317" y="1103"/>
      <point x="78" y="886"/>
      <point x="78" y="559" type="curve"/>
      <point x="78" y="534" type="line"/>
      <point x="78" y="201"/>
      <point x="317" y="-22"/>
    </contour>
    <contour>
      <point x="676" y="138" type="curve" smooth="yes"/>
      <point x="433" y="138"/>
      <point x="271" y="297"/>
      <point x="271" y="534" type="curve" smooth="yes"/>
      <point x="271" y="559" type="line" smooth="yes"/>
      <point x="271" y="790"/>
      <point x="433" y="944"/>
      <point x="676" y="944" type="curve" smooth="yes"/>
      <point x="919" y="944"/>
      <point x="1081" y="790"/>
      <point x="1081" y="559" type="curve" smooth="yes"/>
      <point x="1081" y="534" type="line" smooth="yes"/>
      <point x="1081" y="297"/>
      <point x="919" y="138"/>
    </contour>
  </outline>
</glyph>
<glyph name="increment" format="2">
  <advance width="765"/>
  <unicode hex="2206"/>
  <outline>
    <contour>
      <point x="585" y="82" type="line"/>
      <point x="735" y="152" type="line"/>
      <point x="483" y="1278" type="line"/>
      <point x="346" y="1278" type="line"/>
    </contour>
    <contour>
      <point x="30" y="152" type="line"/>
      <point x="30" y="0" type="line"/>
      <point x="474" y="0" type="line"/>
      <point x="474" y="160" type="line"/>
      <point x="158" y="160" type="line"/>
    </contour>
    <contour>
      <point x="180" y="82" type="line"/>
      <point x="419" y="1278" type="line"/>
      <point x="282" y="1278" type="line"/>
      <point x="30" y="152" type="line"/>
    </contour>
    <contour>
      <point x="735" y="152" type="line"/>
      <point x="605" y="160" type="line"/>
      <point x="291" y="160" type="line"/>
      <point x="291" y="0" type="line"/>
      <point x="735" y="0" type="line"/>
    </contour>
  </outline>
</glyph>
<glyph name="product" format="2">
  <advance width="786"/>
  <unicode hex="220F"/>
  <outline>
    <contour>
      <point x="688" y="-185" type="line"/>
      <point x="688" y="1278" type="line"/>
      <point x="98" y="1278" type="line"/>
      <point x="98" y="-185" type="line"/>
      <point x="277" y="-185" type="line"/>
      <point x="277" y="1194" type="line"/>
      <point x="197" y="1118" type="line"/>
      <point x="578" y="1118" type="line"/>
      <point x="509" y="1193" type="line"/>
      <point x="509" y="-185" type="line"/>
    </contour>
  </outline>
</glyph>
<glyph name="summation" format="2">
  <advance width="561"/>
  <unicode hex="2211"/>
  <outline>
    <contour>
      <point x="30" y="1124" type="line"/>
      <point x="133" y="1119" type="line"/>
      <point x="515" y="1119" type="line"/>
      <point x="515" y="1278" type="line"/>
      <point x="30" y="1278" type="line"/>
    </contour>
    <contour>
      <point x="30" y="-185" type="line"/>
      <point x="515" y="-185" type="line"/>
      <point x="515" y="-26" type="line"/>
      <point x="134" y="-26" type="line"/>
      <point x="30" y="-31" type="line"/>
    </contour>
    <contour>
      <point x="256" y="559" type="line"/>
      <point x="256" y="544" type="line"/>
      <point x="30" y="-31" type="line"/>
      <point x="160" y="-130" type="line"/>
      <point x="429" y="498" type="line"/>
      <point x="429" y="603" type="line"/>
      <point x="160" y="1222" type="line"/>
      <point x="30" y="1124" type="line"/>
    </contour>
  </outline>
</glyph>
<glyph name="radical" format="2">
  <advance width="783"/>
  <unicode hex="221A"/>
  <outline>
    <contour>
      <point x="275" y="-240" type="line"/>
      <point x="429" y="-240" type="line"/>
      <point x="778" y="1352" type="line"/>
      <point x="624" y="1352" type="line"/>
    </contour>
    <contour>
      <point x="172" y="-240" type="line"/>
      <point x="421" y="-240" type="line"/>
      <point x="305" y="-136" type="line"/>
      <point x="290" y="-136" type="line"/>
      <point x="200" y="337" type="line"/>
      <point x="53" y="337" type="line"/>
    </contour>
  </outline>
</glyph>
<glyph name="infinity" format="2">
  <advance width="1029"/>
  <unicode hex="221E"/>
  <outline>
    <contour>
      <point x="69" y="352" type="line"/>
      <point x="69" y="153"/>
      <point x="158" y="71"/>
      <point x="287" y="71" type="curve" smooth="yes"/>
      <point x="419" y="71"/>
      <point x="489" y="143"/>
      <point x="539" y="370" type="curve"/>
      <point x="546" y="370" type="line"/>
      <point x="551" y="595" type="line"/>
      <point x="539" y="596" type="line"/>
      <point x="490" y="823"/>
      <point x="419" y="895"/>
      <point x="283" y="895" type="curve" smooth="yes"/>
      <point x="158" y="895"/>
      <point x="69" y="812"/>
      <point x="69" y="614" type="curve"/>
    </contour>
    <contour>
      <point x="233" y="352" type="curve"/>
      <point x="233" y="614" type="line" smooth="yes"/>
      <point x="233" y="707"/>
      <point x="255" y="752"/>
      <point x="308" y="752" type="curve" smooth="yes"/>
      <point x="372" y="752"/>
      <point x="414" y="674"/>
      <point x="450" y="482" type="curve"/>
      <point x="414" y="292"/>
      <point x="371" y="214"/>
      <point x="308" y="214" type="curve" smooth="yes"/>
      <point x="255" y="214"/>
      <point x="233" y="259"/>
    </contour>
    <contour>
      <point x="960" y="352" type="curve"/>
      <point x="960" y="614" type="line"/>
      <point x="960" y="812"/>
      <point x="871" y="895"/>
      <point x="746" y="895" type="curve" smooth="yes"/>
      <point x="610" y="895"/>
      <point x="540" y="823"/>
      <point x="490" y="595" type="curve"/>
      <point x="483" y="595" type="line"/>
      <point x="483" y="371" type="line"/>
      <point x="490" y="371" type="line"/>
      <point x="540" y="143"/>
      <point x="610" y="71"/>
      <point x="742" y="71" type="curve" smooth="yes"/>
      <point x="871" y="71"/>
      <point x="960" y="153"/>
    </contour>
    <contour>
      <point x="796" y="352" type="line"/>
      <point x="796" y="259"/>
      <point x="773" y="214"/>
      <point x="720" y="214" type="curve" smooth="yes"/>
      <point x="657" y="214"/>
      <point x="614" y="292"/>
      <point x="579" y="482" type="curve"/>
      <point x="614" y="674"/>
      <point x="657" y="752"/>
      <point x="720" y="752" type="curve" smooth="yes"/>
      <point x="773" y="752"/>
      <point x="796" y="707"/>
      <point x="796" y="614" type="curve" smooth="yes"/>
    </contour>
  </outline>
</glyph>
<glyph name="integral" format="2">
  <advance width="420"/>
  <unicode hex="222B"/>
  <outline>
    <contour>
      <point x="-126" y="-201" type="curve"/>
      <point x="-120" y="-334" type="line"/>
      <point x="-87" y="-344"/>
      <point x="-50" y="-350"/>
      <point x="-9" y="-350" type="curve" smooth="yes"/>
      <point x="152" y="-350"/>
      <point x="240" y="-272"/>
      <point x="252" y="-87" type="curve"/>
      <point x="331" y="1062" type="line"/>
      <point x="338" y="1167"/>
      <point x="380" y="1203"/>
      <point x="469" y="1203" type="curve" smooth="yes"/>
      <point x="493" y="1203"/>
      <point x="518" y="1200"/>
      <point x="542" y="1195" type="curve"/>
      <point x="537" y="1328" type="line"/>
      <point x="504" y="1338"/>
      <point x="466" y="1344"/>
      <point x="425" y="1344" type="curve" smooth="yes"/>
      <point x="265" y="1344"/>
      <point x="177" y="1266"/>
      <point x="165" y="1081" type="curve"/>
      <point x="86" y="-68" type="line"/>
      <point x="79" y="-173"/>
      <point x="37" y="-209"/>
      <point x="-52" y="-209" type="curve" smooth="yes"/>
      <point x="-77" y="-209"/>
      <point x="-101" y="-206"/>
    </contour>
  </outline>
</glyph>
<glyph name="notequal" format="2">
  <advance width="695"/>
  <unicode hex="2260"/>
  <outline>
    <contour>
      <point x="161" y="193" type="line"/>
      <point x="295" y="193" type="line"/>
      <point x="501" y="1080" type="line"/>
      <point x="367" y="1080" type="line"/>
    </contour>
    <component base="equal"/>
  </outline>
</glyph>
<glyph name="greaterequal" format="2">
  <advance width="694"/>
  <unicode hex="2265"/>
  <outline>
    <contour>
      <point x="69" y="454" type="line"/>
      <point x="625" y="608" type="line"/>
      <point x="625" y="834" type="line"/>
      <point x="69" y="988" type="line"/>
      <point x="69" y="841" type="line"/>
      <point x="508" y="728" type="line"/>
      <point x="508" y="714" type="line"/>
      <point x="69" y="601" type="line"/>
    </contour>
    <contour>
      <point x="625" y="193" type="line"/>
      <point x="625" y="333" type="line"/>
      <point x="69" y="333" type="line"/>
      <point x="69" y="193" type="line"/>
    </contour>
  </outline>
</glyph>
<glyph name="lozenge" format="2">
  <advance width="712"/>
  <unicode hex="25CA"/>
  <outline>
    <contour>
      <point x="166" y="560" type="line"/>
      <point x="409" y="1278" type="line"/>
      <point x="256" y="1278" type="line"/>
      <point x="41" y="719" type="line"/>
      <point x="41" y="560" type="line"/>
    </contour>
    <contour>
      <point x="153" y="744" type="line"/>
      <point x="41" y="560" type="line"/>
      <point x="256" y="0" type="line"/>
      <point x="409" y="0" type="line"/>
    </contour>
    <contour>
      <point x="547" y="560" type="line"/>
      <point x="671" y="560" type="line"/>
      <point x="671" y="719" type="line"/>
      <point x="456" y="1278" type="line"/>
      <point x="303" y="1278" type="line"/>
    </contour>
    <contour>
      <point x="559" y="744" type="line"/>
      <point x="303" y="0" type="line"/>
      <point x="456" y="0" type="line"/>
      <point x="671" y="560" type="line"/>
    </contour>
  </outline>
</glyph>
<glyph name="leftanglebracketmath" format="2">
  <advance width="449"/>
  <unicode hex="27E8"/>
  <outline>
    <contour>
      <point x="255" y="556" type="line"/>
      <point x="431" y="1352" type="line"/>
      <point x="272" y="1352" type="line"/>
      <point x="92" y="578" type="line"/>
      <point x="92" y="535" type="line"/>
      <point x="272" y="-240" type="line"/>
      <point x="431" y="-240" type="line"/>
    </contour>
  </outline>
</glyph>
<glyph name="rightanglebracketmath" format="2">
  <advance width="449"/>
  <unicode hex="27E9"/>
  <outline>
    <contour>
      <point x="194" y="556" type="line"/>
      <point x="18" y="-240" type="line"/>
      <point x="177" y="-240" type="line"/>
      <point x="357" y="535" type="line"/>
      <point x="357" y="578" type="line"/>
      <point x="177" y="1352" type="line"/>
      <point x="18" y="1352" type="line"/>
    </contour>
  </outline>
</glyph>
<glyph name="__hookabovecombsmall.case" format="2">
  <advance width="456"/>
  <anchor x="182" y="998" name="_top"/>
  <outline>
    <contour>
      <point x="165" y="1064" type="curve"/>
      <point x="149" y="1150" type="line"/>
      <point x="197" y="1165"/>
      <point x="228" y="1183"/>
      <point x="228" y="1216" type="curve" smooth="yes"/>
      <point x="228" y="1240"/>
      <point x="212" y="1251"/>
      <point x="181" y="1251" type="curve" smooth="yes"/>
      <point x="154" y="1251"/>
      <point x="129" y="1243"/>
      <point x="107" y="1234" type="curve"/>
      <point x="115" y="1323" type="line"/>
      <point x="136" y="1333"/>
      <point x="170" y="1342"/>
      <point x="208" y="1342" type="curve" smooth="yes"/>
      <point x="293" y="1342"/>
      <point x="341" y="1303"/>
      <point x="341" y="1222" type="curve" smooth="yes"/>
      <point x="341" y="1138"/>
      <point x="274" y="1087"/>
    </contour>
  </outline>
</glyph>
<glyph name="__hookabovecombsmall" format="2">
  <advance width="456"/>
  <anchor x="182" y="998" name="_top"/>
  <outline>
    <contour>
      <point x="166" y="1063" type="curve"/>
      <point x="150" y="1156" type="line"/>
      <point x="200" y="1171"/>
      <point x="233" y="1192"/>
      <point x="233" y="1228" type="curve" smooth="yes"/>
      <point x="233" y="1258"/>
      <point x="216" y="1272"/>
      <point x="181" y="1272" type="curve" smooth="yes"/>
      <point x="155" y="1272"/>
      <point x="131" y="1264"/>
      <point x="108" y="1253" type="curve"/>
      <point x="116" y="1348" type="line"/>
      <point x="138" y="1359"/>
      <point x="172" y="1368"/>
      <point x="208" y="1368" type="curve" smooth="yes"/>
      <point x="297" y="1368"/>
      <point x="346" y="1324"/>
      <point x="346" y="1235" type="curve" smooth="yes"/>
      <point x="346" y="1143"/>
      <point x="277" y="1089"/>
    </contour>
  </outline>
</glyph>
<glyph name="_acutecombsmall.case" format="2">
  <advance width="488"/>
  <anchor x="171" y="998" name="_top"/>
  <outline>
    <contour>
      <point x="212" y="1286" type="line"/>
      <point x="111" y="1087" type="line"/>
      <point x="111" y="1087" type="line"/>
      <point x="231" y="1087" type="line"/>
      <point x="364" y="1286" type="line"/>
      <point x="364" y="1286" type="line"/>
    </contour>
  </outline>
</glyph>
<glyph name="_acutecombsmall" format="2">
  <advance width="488"/>
  <anchor x="171" y="998" name="_top"/>
  <outline>
    <contour>
      <point x="212" y="1303" type="line"/>
      <point x="110" y="1084" type="line"/>
      <point x="110" y="1084" type="line"/>
      <point x="232" y="1084" type="line"/>
      <point x="364" y="1303" type="line"/>
      <point x="364" y="1303" type="line"/>
    </contour>
  </outline>
</glyph>
<glyph name="_gravecombsmall.case" format="2">
  <advance width="488"/>
  <anchor x="316" y="998" name="_top"/>
  <outline>
    <contour>
      <point x="276" y="1286" type="line"/>
      <point x="124" y="1286" type="line"/>
      <point x="124" y="1286" type="line"/>
      <point x="257" y="1087" type="line"/>
      <point x="377" y="1087" type="line"/>
      <point x="377" y="1087" type="line"/>
    </contour>
  </outline>
</glyph>
<glyph name="_gravecombsmall" format="2">
  <advance width="488"/>
  <anchor x="317" y="998" name="_top"/>
  <outline>
    <contour>
      <point x="276" y="1303" type="line"/>
      <point x="124" y="1303" type="line"/>
      <point x="124" y="1303" type="line"/>
      <point x="256" y="1084" type="line"/>
      <point x="378" y="1084" type="line"/>
      <point x="378" y="1084" type="line"/>
    </contour>
  </outline>
</glyph>
<glyph name="_tildecombsmall.case" format="2">
  <advance width="650"/>
  <anchor x="330" y="998" name="_top"/>
  <outline>
    <contour>
      <point x="430" y="1124" type="curve" smooth="yes"/>
      <point x="512" y="1124"/>
      <point x="544" y="1177"/>
      <point x="544" y="1270" type="curve" smooth="yes"/>
      <point x="544" y="1287" type="line"/>
      <point x="446" y="1287" type="line"/>
      <point x="446" y="1278" type="line" smooth="yes"/>
      <point x="446" y="1244"/>
      <point x="437" y="1227"/>
      <point x="409" y="1227" type="curve" smooth="yes"/>
      <point x="370" y="1227"/>
      <point x="303" y="1279"/>
      <point x="231" y="1279" type="curve" smooth="yes"/>
      <point x="148" y="1279"/>
      <point x="116" y="1228"/>
      <point x="116" y="1139" type="curve" smooth="yes"/>
      <point x="116" y="1116" type="line"/>
      <point x="214" y="1116" type="line"/>
      <point x="214" y="1125" type="line" smooth="yes"/>
      <point x="214" y="1156"/>
      <point x="224" y="1174"/>
      <point x="252" y="1174" type="curve" smooth="yes"/>
      <point x="292" y="1174"/>
      <point x="363" y="1124"/>
    </contour>
  </outline>
</glyph>
<glyph name="_tildecombsmall" format="2">
  <advance width="650"/>
  <anchor x="330" y="998" name="_top"/>
  <outline>
    <contour>
      <point x="430" y="1138" type="curve" smooth="yes"/>
      <point x="512" y="1138"/>
      <point x="544" y="1191"/>
      <point x="544" y="1284" type="curve" smooth="yes"/>
      <point x="544" y="1309" type="line"/>
      <point x="446" y="1309" type="line"/>
      <point x="446" y="1298" type="line" smooth="yes"/>
      <point x="446" y="1264"/>
      <point x="437" y="1247"/>
      <point x="409" y="1247" type="curve" smooth="yes"/>
      <point x="370" y="1247"/>
      <point x="303" y="1299"/>
      <point x="231" y="1299" type="curve" smooth="yes"/>
      <point x="148" y="1299"/>
      <point x="116" y="1243"/>
      <point x="116" y="1153" type="curve" smooth="yes"/>
      <point x="116" y="1128" type="line"/>
      <point x="214" y="1128" type="line"/>
      <point x="214" y="1139" type="line" smooth="yes"/>
      <point x="214" y="1171"/>
      <point x="224" y="1188"/>
      <point x="252" y="1188" type="curve" smooth="yes"/>
      <point x="292" y="1188"/>
      <point x="363" y="1138"/>
    </contour>
  </outline>
</glyph>
<glyph name="brevecomb.case" format="2">
  <anchor x="304" y="1278" name="_top"/>
  <anchor x="304" y="1557" name="top"/>
  <outline>
    <contour>
      <point x="303" y="1361" type="curve" smooth="yes"/>
      <point x="449" y="1361"/>
      <point x="505" y="1446"/>
      <point x="505" y="1596" type="curve"/>
      <point x="392" y="1596" type="line"/>
      <point x="392" y="1517"/>
      <point x="366" y="1471"/>
      <point x="303" y="1471" type="curve" smooth="yes"/>
      <point x="241" y="1471"/>
      <point x="215" y="1517"/>
      <point x="215" y="1596" type="curve"/>
      <point x="102" y="1596" type="line"/>
      <point x="102" y="1446"/>
      <point x="158" y="1361"/>
    </contour>
  </outline>
</glyph>
<glyph name="brevecomb.narrow" format="2">
  <anchor x="303" y="998" name="_top"/>
  <anchor x="304" y="1316" name="top"/>
  <outline>
    <contour>
      <point x="303" y="1091" type="curve" smooth="yes"/>
      <point x="439" y="1091"/>
      <point x="487" y="1174"/>
      <point x="487" y="1349" type="curve"/>
      <point x="378" y="1349" type="line"/>
      <point x="377" y="1249"/>
      <point x="356" y="1207"/>
      <point x="303" y="1207" type="curve" smooth="yes"/>
      <point x="251" y="1207"/>
      <point x="230" y="1249"/>
      <point x="229" y="1349" type="curve"/>
      <point x="120" y="1349" type="line"/>
      <point x="120" y="1174"/>
      <point x="168" y="1091"/>
    </contour>
  </outline>
</glyph>
<glyph name="brevecomb_tildecomb.case" format="2">
  <anchor x="304" y="1278" name="_top"/>
  <anchor x="303" y="1557" name="top"/>
  <outline>
    <contour>
      <point x="401" y="1681" type="curve" smooth="yes"/>
      <point x="482" y="1681"/>
      <point x="513" y="1732"/>
      <point x="513" y="1824" type="curve" smooth="yes"/>
      <point x="513" y="1840" type="line"/>
      <point x="417" y="1840" type="line"/>
      <point x="417" y="1831" type="line" smooth="yes"/>
      <point x="417" y="1798"/>
      <point x="408" y="1781"/>
      <point x="381" y="1781" type="curve" smooth="yes"/>
      <point x="343" y="1781"/>
      <point x="277" y="1832"/>
      <point x="206" y="1832" type="curve" smooth="yes"/>
      <point x="125" y="1832"/>
      <point x="94" y="1782"/>
      <point x="94" y="1695" type="curve" smooth="yes"/>
      <point x="94" y="1673" type="line"/>
      <point x="190" y="1673" type="line"/>
      <point x="190" y="1682" type="line" smooth="yes"/>
      <point x="190" y="1712"/>
      <point x="200" y="1730"/>
      <point x="227" y="1730" type="curve" smooth="yes"/>
      <point x="266" y="1730"/>
      <point x="336" y="1681"/>
    </contour>
    <component base="brevecomb.case" xOffset="-1"/>
  </outline>
</glyph>
<glyph name="brevecomb_tildecomb" format="2">
  <anchor x="303" y="998" name="_top"/>
  <anchor x="303" y="1319" name="top"/>
  <outline>
    <contour>
      <point x="401" y="1456" type="curve" smooth="yes"/>
      <point x="482" y="1456"/>
      <point x="513" y="1508"/>
      <point x="513" y="1599" type="curve" smooth="yes"/>
      <point x="513" y="1624" type="line"/>
      <point x="417" y="1624" type="line"/>
      <point x="417" y="1613" type="line" smooth="yes"/>
      <point x="417" y="1580"/>
      <point x="408" y="1563"/>
      <point x="381" y="1563" type="curve" smooth="yes"/>
      <point x="343" y="1563"/>
      <point x="277" y="1614"/>
      <point x="206" y="1614" type="curve" smooth="yes"/>
      <point x="125" y="1614"/>
      <point x="94" y="1559"/>
      <point x="94" y="1471" type="curve" smooth="yes"/>
      <point x="94" y="1446" type="line"/>
      <point x="190" y="1446" type="line"/>
      <point x="190" y="1457" type="line" smooth="yes"/>
      <point x="190" y="1489"/>
      <point x="200" y="1505"/>
      <point x="227" y="1505" type="curve" smooth="yes"/>
      <point x="266" y="1505"/>
      <point x="336" y="1456"/>
    </contour>
    <component base="brevecomb" xOffset="-1"/>
  </outline>
</glyph>
<glyph name="breveinvertedcomb.case" format="2">
  <anchor x="304" y="1278" name="_top"/>
  <anchor x="304" y="1567" name="top"/>
  <outline>
    <contour>
      <point x="303" y="1602" type="curve" smooth="yes"/>
      <point x="158" y="1602"/>
      <point x="102" y="1517"/>
      <point x="102" y="1367" type="curve"/>
      <point x="215" y="1367" type="line"/>
      <point x="215" y="1446"/>
      <point x="241" y="1492"/>
      <point x="303" y="1492" type="curve" smooth="yes"/>
      <point x="366" y="1492"/>
      <point x="392" y="1446"/>
      <point x="392" y="1367" type="curve"/>
      <point x="505" y="1367" type="line"/>
      <point x="505" y="1517"/>
      <point x="449" y="1602"/>
    </contour>
  </outline>
</glyph>
<glyph name="breveinvertedcomb.narrow" format="2">
  <anchor x="303" y="998" name="_top"/>
  <anchor x="304" y="1322" name="top"/>
  <outline>
    <contour>
      <point x="303" y="1350" type="curve" smooth="yes"/>
      <point x="168" y="1350"/>
      <point x="120" y="1267"/>
      <point x="120" y="1092" type="curve"/>
      <point x="229" y="1092" type="line"/>
      <point x="230" y="1192"/>
      <point x="251" y="1234"/>
      <point x="303" y="1234" type="curve" smooth="yes"/>
      <point x="356" y="1234"/>
      <point x="377" y="1192"/>
      <point x="378" y="1092" type="curve"/>
      <point x="487" y="1092" type="line"/>
      <point x="487" y="1267"/>
      <point x="439" y="1350"/>
    </contour>
  </outline>
</glyph>
<glyph name="caroncomb.alt" format="2">
  <anchor x="83" y="1278" name="_topright"/>
  <outline>
    <contour>
      <point x="228" y="1278" type="curve"/>
      <point x="83" y="1278" type="line"/>
      <point x="87" y="1239"/>
      <point x="90" y="1209"/>
      <point x="90" y="1175" type="curve" smooth="yes"/>
      <point x="90" y="1064"/>
      <point x="71" y="974"/>
      <point x="39" y="896" type="curve"/>
      <point x="143" y="864" type="line"/>
      <point x="208" y="957"/>
      <point x="236" y="1061"/>
      <point x="236" y="1186" type="curve" smooth="yes"/>
      <point x="236" y="1225"/>
      <point x="231" y="1256"/>
    </contour>
  </outline>
</glyph>
<glyph name="caroncomb.case" format="2">
  <anchor x="342" y="1278" name="_top"/>
  <anchor x="342" y="1557" name="top"/>
  <outline>
    <contour>
      <point x="250" y="1367" type="line"/>
      <point x="434" y="1367" type="line"/>
      <point x="584" y="1604" type="line"/>
      <point x="584" y="1604" type="line"/>
      <point x="452" y="1604" type="line"/>
      <point x="346" y="1464" type="line"/>
      <point x="338" y="1464" type="line"/>
      <point x="232" y="1604" type="line"/>
      <point x="100" y="1604" type="line"/>
      <point x="100" y="1604" type="line"/>
    </contour>
  </outline>
</glyph>
<glyph name="circumflexcomb_tildecomb.case" format="2">
  <anchor x="342" y="1278" name="_top"/>
  <anchor x="342" y="1557" name="top"/>
  <outline>
    <contour>
      <point x="440" y="1681" type="curve" smooth="yes"/>
      <point x="521" y="1681"/>
      <point x="552" y="1732"/>
      <point x="552" y="1824" type="curve" smooth="yes"/>
      <point x="552" y="1840" type="line"/>
      <point x="456" y="1840" type="line"/>
      <point x="456" y="1831" type="line" smooth="yes"/>
      <point x="456" y="1798"/>
      <point x="447" y="1781"/>
      <point x="420" y="1781" type="curve" smooth="yes"/>
      <point x="382" y="1781"/>
      <point x="316" y="1832"/>
      <point x="245" y="1832" type="curve" smooth="yes"/>
      <point x="164" y="1832"/>
      <point x="133" y="1782"/>
      <point x="133" y="1695" type="curve" smooth="yes"/>
      <point x="133" y="1673" type="line"/>
      <point x="229" y="1673" type="line"/>
      <point x="229" y="1682" type="line" smooth="yes"/>
      <point x="229" y="1712"/>
      <point x="239" y="1730"/>
      <point x="266" y="1730" type="curve" smooth="yes"/>
      <point x="305" y="1730"/>
      <point x="375" y="1681"/>
    </contour>
    <component base="circumflexcomb.case"/>
  </outline>
</glyph>
<glyph name="circumflexcomb_tildecomb" format="2">
  <anchor x="312" y="998" name="_top"/>
  <anchor x="312" y="1307" name="top"/>
  <outline>
    <contour>
      <point x="410" y="1444" type="curve" smooth="yes"/>
      <point x="491" y="1444"/>
      <point x="522" y="1496"/>
      <point x="522" y="1587" type="curve" smooth="yes"/>
      <point x="522" y="1612" type="line"/>
      <point x="426" y="1612" type="line"/>
      <point x="426" y="1601" type="line" smooth="yes"/>
      <point x="426" y="1568"/>
      <point x="417" y="1551"/>
      <point x="390" y="1551" type="curve" smooth="yes"/>
      <point x="352" y="1551"/>
      <point x="286" y="1602"/>
      <point x="215" y="1602" type="curve" smooth="yes"/>
      <point x="134" y="1602"/>
      <point x="103" y="1547"/>
      <point x="103" y="1459" type="curve" smooth="yes"/>
      <point x="103" y="1434" type="line"/>
      <point x="199" y="1434" type="line"/>
      <point x="199" y="1445" type="line" smooth="yes"/>
      <point x="199" y="1477"/>
      <point x="209" y="1493"/>
      <point x="236" y="1493" type="curve" smooth="yes"/>
      <point x="275" y="1493"/>
      <point x="345" y="1444"/>
    </contour>
    <component base="circumflexcomb"/>
  </outline>
</glyph>
<glyph name="commaturnedabovecomb.case" format="2">
  <anchor x="166" y="1278" name="_top"/>
  <anchor x="197" y="1632" name="top"/>
  <outline>
    <contour>
      <point x="114" y="1368" type="curve"/>
      <point x="258" y="1368" type="line"/>
      <point x="256" y="1392"/>
      <point x="255" y="1414"/>
      <point x="255" y="1437" type="curve" smooth="yes"/>
      <point x="255" y="1520"/>
      <point x="273" y="1585"/>
      <point x="305" y="1642" type="curve"/>
      <point x="196" y="1679" type="line"/>
      <point x="134" y="1605"/>
      <point x="110" y="1529"/>
      <point x="110" y="1436" type="curve" smooth="yes"/>
      <point x="110" y="1408"/>
      <point x="112" y="1385"/>
    </contour>
  </outline>
</glyph>
<glyph name="dblgravecomb.case" format="2">
  <anchor x="417" y="1278" name="_top"/>
  <anchor x="309" y="1567" name="top"/>
  <outline>
    <contour>
      <point x="260" y="1604" type="line"/>
      <point x="111" y="1604" type="line"/>
      <point x="111" y="1604" type="line"/>
      <point x="248" y="1367" type="line"/>
      <point x="364" y="1367" type="line"/>
      <point x="364" y="1367" type="line"/>
    </contour>
    <contour>
      <point x="480" y="1604" type="line"/>
      <point x="331" y="1604" type="line"/>
      <point x="331" y="1599" type="line"/>
      <point x="468" y="1367" type="line"/>
      <point x="584" y="1367" type="line"/>
      <point x="584" y="1367" type="line"/>
    </contour>
  </outline>
</glyph>
<glyph name="dblgravecomb.narrow" format="2">
  <anchor x="400" y="998" name="_top"/>
  <anchor x="317" y="1322" name="top"/>
  <outline>
    <contour>
      <point x="295" y="1349" type="line"/>
      <point x="158" y="1349" type="line"/>
      <point x="158" y="1349" type="line"/>
      <point x="250" y="1092" type="line"/>
      <point x="358" y="1092" type="line"/>
      <point x="358" y="1092" type="line"/>
    </contour>
    <contour>
      <point x="500" y="1349" type="line"/>
      <point x="364" y="1349" type="line"/>
      <point x="364" y="1344" type="line"/>
      <point x="442" y="1092" type="line"/>
      <point x="550" y="1092" type="line"/>
      <point x="550" y="1092" type="line"/>
    </contour>
  </outline>
</glyph>
<glyph name="dotaccentcomb.case" format="2">
  <anchor x="189" y="1278" name="_top"/>
  <anchor x="189" y="1571" name="top"/>
  <outline>
    <contour>
      <point x="188" y="1398" type="curve" smooth="yes"/>
      <point x="246" y="1398"/>
      <point x="275" y="1434"/>
      <point x="275" y="1499" type="curve" smooth="yes"/>
      <point x="275" y="1504" type="line" smooth="yes"/>
      <point x="275" y="1569"/>
      <point x="246" y="1605"/>
      <point x="188" y="1605" type="curve" smooth="yes"/>
      <point x="131" y="1605"/>
      <point x="103" y="1569"/>
      <point x="103" y="1504" type="curve" smooth="yes"/>
      <point x="103" y="1499" type="line" smooth="yes"/>
      <point x="103" y="1434"/>
      <point x="131" y="1398"/>
    </contour>
  </outline>
</glyph>
<glyph name="dotbelowcomb.case" format="2">
  <anchor x="189" y="0" name="_bottom"/>
  <anchor x="189" y="-351" name="bottom"/>
  <outline>
    <contour>
      <point x="188" y="-326" type="curve" smooth="yes"/>
      <point x="246" y="-326"/>
      <point x="275" y="-290"/>
      <point x="275" y="-225" type="curve" smooth="yes"/>
      <point x="275" y="-220" type="line" smooth="yes"/>
      <point x="275" y="-155"/>
      <point x="246" y="-119"/>
      <point x="188" y="-119" type="curve" smooth="yes"/>
      <point x="131" y="-119"/>
      <point x="103" y="-155"/>
      <point x="103" y="-220" type="curve" smooth="yes"/>
      <point x="103" y="-225" type="line" smooth="yes"/>
      <point x="103" y="-290"/>
      <point x="131" y="-326"/>
    </contour>
  </outline>
</glyph>
<glyph name="horncomb.case" format="2">
  <anchor x="276" y="1278" name="_topright"/>
  <anchor x="354" y="1492" name="topright"/>
  <outline>
    <contour>
      <point x="150" y="1188" type="line"/>
      <point x="277" y="1218"/>
      <point x="335" y="1293"/>
      <point x="335" y="1393" type="curve" smooth="yes"/>
      <point x="335" y="1426"/>
      <point x="330" y="1456"/>
      <point x="323" y="1483" type="curve"/>
      <point x="171" y="1483" type="line"/>
      <point x="177" y="1457"/>
      <point x="181" y="1430"/>
      <point x="181" y="1401" type="curve" smooth="yes"/>
      <point x="181" y="1336"/>
      <point x="155" y="1294"/>
      <point x="95" y="1262" type="curve"/>
    </contour>
  </outline>
</glyph>
<glyph name="horncomb.case_O" format="2">
  <anchor x="275" y="1278" name="_topright"/>
  <anchor x="352" y="1492" name="topright"/>
  <outline>
    <contour>
      <point x="151" y="1176" type="line"/>
      <point x="280" y="1218"/>
      <point x="333" y="1296"/>
      <point x="333" y="1395" type="curve" smooth="yes"/>
      <point x="333" y="1427"/>
      <point x="328" y="1456"/>
      <point x="321" y="1483" type="curve"/>
      <point x="168" y="1483" type="line"/>
      <point x="174" y="1458"/>
      <point x="179" y="1431"/>
      <point x="179" y="1402" type="curve" smooth="yes"/>
      <point x="179" y="1336"/>
      <point x="149" y="1289"/>
      <point x="82" y="1254" type="curve"/>
    </contour>
  </outline>
</glyph>
<glyph name="horncomb_o" format="2">
  <anchor x="276" y="998" name="_topright"/>
  <anchor x="349" y="1213" name="topright"/>
  <outline>
    <contour>
      <point x="152" y="908" type="line"/>
      <point x="283" y="944"/>
      <point x="335" y="1022"/>
      <point x="335" y="1123" type="curve" smooth="yes"/>
      <point x="335" y="1156"/>
      <point x="330" y="1185"/>
      <point x="323" y="1212" type="curve"/>
      <point x="170" y="1212" type="line"/>
      <point x="176" y="1187"/>
      <point x="181" y="1159"/>
      <point x="181" y="1130" type="curve" smooth="yes"/>
      <point x="181" y="1063"/>
      <point x="150" y="1014"/>
      <point x="79" y="985" type="curve"/>
    </contour>
  </outline>
</glyph>
<glyph name="hungarumlautcomb.case" format="2">
  <anchor x="268" y="1278" name="_top"/>
  <anchor x="375" y="1567" name="top"/>
  <outline>
    <contour>
      <point x="424" y="1604" type="line"/>
      <point x="320" y="1367" type="line"/>
      <point x="320" y="1367" type="line"/>
      <point x="436" y="1367" type="line"/>
      <point x="573" y="1604" type="line"/>
      <point x="573" y="1604" type="line"/>
    </contour>
    <contour>
      <point x="204" y="1604" type="line"/>
      <point x="100" y="1367" type="line"/>
      <point x="100" y="1367" type="line"/>
      <point x="216" y="1367" type="line"/>
      <point x="353" y="1599" type="line"/>
      <point x="353" y="1604" type="line"/>
    </contour>
  </outline>
</glyph>
<glyph name="hungarumlautcomb.narrow" format="2">
  <anchor x="270" y="998" name="_top"/>
  <anchor x="343" y="1322" name="top"/>
  <outline>
    <contour>
      <point x="373" y="1349" type="line"/>
      <point x="310" y="1092" type="line"/>
      <point x="310" y="1092" type="line"/>
      <point x="418" y="1092" type="line"/>
      <point x="510" y="1349" type="line"/>
      <point x="510" y="1349" type="line"/>
    </contour>
    <contour>
      <point x="168" y="1349" type="line"/>
      <point x="118" y="1092" type="line"/>
      <point x="118" y="1092" type="line"/>
      <point x="226" y="1092" type="line"/>
      <point x="304" y="1344" type="line"/>
      <point x="304" y="1349" type="line"/>
    </contour>
  </outline>
</glyph>
<glyph name="macroncomb.narrow" format="2">
  <anchor x="308" y="998" name="_top"/>
  <anchor x="308" y="1288" name="top"/>
  <outline>
    <contour>
      <point x="130" y="1140" type="line"/>
      <point x="485" y="1140" type="line"/>
      <point x="485" y="1263" type="line"/>
      <point x="130" y="1263" type="line"/>
    </contour>
  </outline>
</glyph>
<glyph name="ogonekcomb.case" format="2">
  <anchor x="395" y="0" name="_ogonek"/>
  <outline>
    <contour>
      <point x="269" y="-335" type="curve" smooth="yes"/>
      <point x="308" y="-335"/>
      <point x="349" y="-327"/>
      <point x="376" y="-315" type="curve"/>
      <point x="388" y="-191" type="line"/>
      <point x="364" y="-201"/>
      <point x="341" y="-206"/>
      <point x="314" y="-206" type="curve" smooth="yes"/>
      <point x="264" y="-206"/>
      <point x="235" y="-181"/>
      <point x="235" y="-136" type="curve" smooth="yes"/>
      <point x="235" y="-135" type="line" smooth="yes"/>
      <point x="235" y="-80"/>
      <point x="273" y="-41"/>
      <point x="351" y="0" type="curve"/>
      <point x="351" y="7" type="line"/>
      <point x="246" y="6" type="line"/>
      <point x="246" y="-4" type="line"/>
      <point x="155" y="-43"/>
      <point x="107" y="-99"/>
      <point x="107" y="-190" type="curve" smooth="yes"/>
      <point x="107" y="-191" type="line" smooth="yes"/>
      <point x="107" y="-285"/>
      <point x="170" y="-335"/>
    </contour>
  </outline>
</glyph>
<glyph name="periodcentered.loclCAT.case" format="2">
  <outline>
    <contour>
      <point x="-111" y="578" type="curve" smooth="yes"/>
      <point x="-57" y="578"/>
      <point x="-30" y="615"/>
      <point x="-30" y="682" type="curve" smooth="yes"/>
      <point x="-30" y="693" type="line" smooth="yes"/>
      <point x="-30" y="760"/>
      <point x="-57" y="797"/>
      <point x="-111" y="797" type="curve" smooth="yes"/>
      <point x="-165" y="797"/>
      <point x="-192" y="760"/>
      <point x="-192" y="693" type="curve" smooth="yes"/>
      <point x="-192" y="682" type="line" smooth="yes"/>
      <point x="-192" y="615"/>
      <point x="-165" y="578"/>
    </contour>
  </outline>
</glyph>
<glyph name="periodcentered.loclCAT" format="2">
  <advance width="113"/>
  <outline>
    <contour>
      <point x="56" y="587" type="curve" smooth="yes"/>
      <point x="110" y="587"/>
      <point x="137" y="624"/>
      <point x="137" y="691" type="curve" smooth="yes"/>
      <point x="137" y="702" type="line" smooth="yes"/>
      <point x="137" y="769"/>
      <point x="110" y="806"/>
      <point x="56" y="806" type="curve" smooth="yes"/>
      <point x="2" y="806"/>
      <point x="-25" y="769"/>
      <point x="-25" y="702" type="curve" smooth="yes"/>
      <point x="-25" y="691" type="line" smooth="yes"/>
      <point x="-25" y="624"/>
      <point x="2" y="587"/>
    </contour>
  </outline>
</glyph>
